<svg width="748" height="192" viewBox="0 0 748 192" fill="none" xmlns="http://www.w3.org/2000/svg">
<mask id="path-1-inside-1_1_4" fill="white">
<path d="M0 20C0 8.9543 8.95431 0 20 0H728C739.046 0 748 8.95431 748 20V112H0V20Z"/>
</mask>
<path d="M0 20C0 8.9543 8.95431 0 20 0H728C739.046 0 748 8.95431 748 20V112H0V20Z" fill="url(#paint0_linear_1_4)"/>
<path d="M-1 20C-1 8.40202 8.40202 -1 20 -1H728C739.598 -1 749 8.40202 749 20H747C747 9.50659 738.493 1 728 1H20C9.50659 1 1 9.50659 1 20H-1ZM748 112H0H748ZM-1 112V20C-1 8.40202 8.40202 -1 20 -1V1C9.50659 1 1 9.50659 1 20V112H-1ZM728 -1C739.598 -1 749 8.40202 749 20V112H747V20C747 9.50659 738.493 1 728 1V-1Z" fill="black" fill-opacity="0.1" mask="url(#path-1-inside-1_1_4)"/>
<path d="M56 73.1115C65.0206 73.1115 72.3333 65.7988 72.3333 56.7782C72.3333 47.7575 65.0206 40.4448 56 40.4448C46.9793 40.4448 39.6667 47.7575 39.6667 56.7782C39.6667 65.7988 46.9793 73.1115 56 73.1115Z" fill="url(#paint1_linear_1_4)"/>
<path d="M64.1317 71.2565C63.595 71.5598 63.035 71.8398 62.475 72.0848C62.3583 72.0265 62.2533 71.9682 62.1367 71.9098C60.5267 71.1048 58.87 70.1482 57.2367 69.0748C57.19 69.0515 57.1317 69.0165 57.085 68.9815C57.4233 68.7715 57.7617 68.5498 58.1 68.3398C58.1467 68.3748 58.1817 68.3982 58.2283 68.4215C58.24 68.4332 58.2633 68.4448 58.2867 68.4565C60.1067 69.4832 61.9267 70.3815 63.6533 71.0815C63.7 71.1048 63.735 71.1165 63.7817 71.1398C63.8983 71.1865 64.015 71.2332 64.1317 71.2565Z" fill="url(#paint2_linear_1_4)"/>
<path d="M40.7867 56.7665C40.7517 56.7198 40.705 56.6615 40.67 56.6032C40.705 56.5565 40.7283 56.5098 40.7633 56.4748C40.7633 56.5682 40.775 56.6732 40.7867 56.7665Z" fill="url(#paint3_radial_1_4)"/>
<path d="M77.0817 42.7198C76.9533 45.9048 75.0517 50.0232 72.345 54.0715C72.2867 54.1648 72.2283 54.2465 72.1583 54.3398C71.4583 55.3782 70.7117 56.3815 69.9183 57.3848C69.37 58.1198 68.7633 58.8315 68.1683 59.5432C66.6167 61.3398 64.9717 63.0082 63.3617 64.4432C61.8567 65.7848 60.1067 67.1382 58.2283 68.4215C57.9717 68.5848 57.715 68.7598 57.4583 68.9348C57.3883 68.9815 57.3067 69.0282 57.2367 69.0748C56.7117 69.4248 56.1867 69.7515 55.65 70.0665C55.3933 70.2298 55.1367 70.3815 54.88 70.5332C53.7133 71.2098 52.535 71.8515 51.345 72.4348C51.2517 72.4815 51.1583 72.5282 51.065 72.5748C47.3433 74.3948 43.645 75.5965 40.6933 75.6898C40.285 75.7015 39.9233 75.7015 39.55 75.6665C37.765 75.5148 36.4 74.8848 35.5017 73.7648C32.2583 69.7748 36.3883 62.5532 39.7133 57.8982C39.795 59.2632 40.0633 60.5815 40.4717 61.8298C38.2083 65.4698 35.98 70.0082 37.625 72.0382C38.0333 72.5515 38.7567 72.8432 39.7717 72.9248C41.7667 73.0882 44.6133 72.3765 47.7167 71.0932C47.7983 71.0582 47.8683 71.0232 47.95 70.9882C49.3967 70.3815 50.89 69.6582 52.3833 68.8298C52.6167 68.7015 52.85 68.5615 53.0833 68.4332C53.7133 68.0715 54.3433 67.6982 54.9617 67.3015C55.195 67.1498 55.4283 67.0098 55.65 66.8465C57.7267 65.5048 59.7217 63.9882 61.53 62.3898C63.175 60.9315 64.7617 59.2982 66.2317 57.6065C66.29 57.5248 66.3717 57.4315 66.4417 57.3498C66.675 57.0815 66.9083 56.8132 67.1183 56.5448C67.4217 56.1948 67.7017 55.8215 67.97 55.4715C69.1833 53.9082 70.28 52.3215 71.19 50.7932C71.2483 50.7115 71.295 50.6298 71.3417 50.5482C73.15 47.5032 74.2583 44.6798 74.34 42.6148C74.375 41.5882 74.1533 40.8298 73.675 40.3282C72.2867 38.8582 67.5617 40.3748 63.7233 42.3932C62.6733 41.8215 61.565 41.3782 60.3983 41.0515C70 35.2532 74.9583 37.7032 75.67 38.4265C76.685 39.4882 77.1517 40.9348 77.0817 42.7198Z" fill="url(#paint4_linear_1_4)"/>
<path d="M75.915 73.7648C75.0167 74.8848 73.6517 75.5148 71.8667 75.6665C71.4933 75.7015 71.1317 75.7015 70.7233 75.6898C67.7717 75.5965 64.0733 74.3948 60.3517 72.5748C60.3283 72.5632 60.305 72.5515 60.2817 72.5398C60.2117 72.5048 60.1417 72.4698 60.0717 72.4348C58.8817 71.8515 57.7033 71.2098 56.5367 70.5332C56.28 70.3815 56.0233 70.2298 55.7667 70.0665C55.23 69.7515 54.705 69.4248 54.18 69.0748C54.11 69.0282 54.0283 68.9815 53.9583 68.9348C53.7017 68.7598 53.445 68.5848 53.1883 68.4215C51.31 67.1382 49.56 65.7848 48.055 64.4432C46.445 63.0082 44.8 61.3398 43.2483 59.5432C42.6533 58.8315 42.0467 58.1198 41.4983 57.3848C40.8917 56.6148 40.3083 55.8448 39.76 55.0515C39.585 54.8182 39.4217 54.5848 39.2583 54.3398C39.1883 54.2465 39.13 54.1648 39.0717 54.0715C36.365 50.0232 34.4633 45.9048 34.335 42.7198C34.265 40.9348 34.7317 39.4882 35.7467 38.4265C36.435 37.7265 40.6 34.7748 51.5667 41.0632C50.2017 41.4365 48.9067 41.9965 47.7167 42.7082C44.2167 40.4098 39.1183 38.8698 37.7417 40.3282C37.2633 40.8298 37.0417 41.5882 37.0767 42.6148C37.1583 44.6798 38.2667 47.5032 40.075 50.5482C40.1217 50.6298 40.1683 50.7115 40.2267 50.7932C40.3433 50.9915 40.46 51.1782 40.5883 51.3765C41.4167 52.7182 42.385 54.1065 43.4467 55.4715C43.715 55.8215 43.995 56.1948 44.2983 56.5448C44.5083 56.8132 44.7417 57.0815 44.975 57.3498C45.045 57.4315 45.1267 57.5248 45.185 57.6065C46.655 59.2982 48.2417 60.9315 49.8867 62.3898C51.695 63.9882 53.69 65.5048 55.7667 66.8465C55.9883 67.0098 56.2217 67.1498 56.455 67.3015C57.0733 67.6982 57.7033 68.0715 58.3333 68.4332C58.5667 68.5615 58.8 68.7015 59.0333 68.8298C60.5267 69.6582 62.02 70.3815 63.4667 70.9882C63.5483 71.0232 63.6183 71.0582 63.7 71.0932C63.735 71.1048 63.7583 71.1165 63.7933 71.1282C66.8617 72.3882 69.6733 73.0882 71.645 72.9248C72.66 72.8432 73.3833 72.5515 73.7917 72.0382C75.3433 70.1248 73.4417 65.9598 71.3183 62.4365C71.7733 61.2348 72.0767 59.9632 72.2283 58.6448C75.4367 63.2998 78.995 69.9848 75.915 73.7648Z" fill="url(#paint5_linear_1_4)"/>
<path d="M111.376 65H101.44V48.656H104.944V62.936L104.056 61.616H111.376V65ZM116.707 65.312C115.859 65.312 115.107 65.152 114.451 64.832C113.811 64.496 113.315 64.032 112.963 63.44C112.611 62.848 112.435 62.16 112.435 61.376C112.435 60.544 112.627 59.84 113.011 59.264C113.395 58.672 113.907 58.216 114.547 57.896C115.203 57.576 115.931 57.416 116.731 57.416C117.899 57.416 118.843 57.68 119.563 58.208C120.283 58.736 120.763 59.496 121.003 60.488L119.491 60.224V57.488C119.491 57.056 119.339 56.68 119.035 56.36C118.731 56.04 118.243 55.88 117.571 55.88C117.139 55.88 116.643 55.936 116.083 56.048C115.523 56.144 114.947 56.336 114.355 56.624L113.323 54.128C114.027 53.776 114.779 53.496 115.579 53.288C116.395 53.08 117.227 52.976 118.075 52.976C119.163 52.976 120.075 53.168 120.811 53.552C121.547 53.936 122.091 54.48 122.443 55.184C122.811 55.888 122.995 56.704 122.995 57.632V65H120.139L119.443 62.72L121.003 62.24C120.747 63.2 120.259 63.952 119.539 64.496C118.819 65.04 117.875 65.312 116.707 65.312ZM117.787 62.816C118.315 62.816 118.731 62.68 119.035 62.408C119.355 62.136 119.515 61.792 119.515 61.376C119.515 60.928 119.355 60.576 119.035 60.32C118.731 60.064 118.315 59.936 117.787 59.936C117.259 59.936 116.843 60.064 116.539 60.32C116.235 60.576 116.083 60.928 116.083 61.376C116.083 61.792 116.235 62.136 116.539 62.408C116.843 62.68 117.259 62.816 117.787 62.816ZM128.545 64.112L123.841 53.264H127.393L131.857 63.584L128.545 64.112ZM126.025 69.56L133.105 53.264H136.657L129.601 69.56H126.025ZM142.767 65.288C141.551 65.288 140.479 65.032 139.551 64.52C138.623 63.992 137.903 63.264 137.391 62.336C136.879 61.408 136.623 60.344 136.623 59.144C136.623 57.928 136.879 56.856 137.391 55.928C137.903 55 138.623 54.28 139.551 53.768C140.479 53.24 141.551 52.976 142.767 52.976C143.999 52.976 145.079 53.24 146.007 53.768C146.935 54.28 147.655 55 148.167 55.928C148.695 56.856 148.959 57.928 148.959 59.144C148.959 60.344 148.695 61.408 148.167 62.336C147.655 63.264 146.935 63.992 146.007 64.52C145.079 65.032 143.999 65.288 142.767 65.288ZM142.767 61.88C143.551 61.88 144.183 61.632 144.663 61.136C145.159 60.624 145.407 59.96 145.407 59.144C145.407 58.312 145.159 57.64 144.663 57.128C144.183 56.616 143.551 56.36 142.767 56.36C142.015 56.36 141.391 56.616 140.895 57.128C140.415 57.624 140.175 58.288 140.175 59.12C140.175 59.952 140.415 60.624 140.895 61.136C141.391 61.632 142.015 61.88 142.767 61.88ZM154.567 65.288C153.703 65.288 152.999 65.16 152.455 64.904C151.927 64.648 151.511 64.296 151.207 63.848C150.919 63.384 150.719 62.864 150.607 62.288C150.511 61.696 150.463 61.072 150.463 60.416V53.264H153.967V60.224C153.967 60.88 154.103 61.32 154.375 61.544C154.647 61.752 154.983 61.856 155.383 61.856C155.735 61.856 156.079 61.8 156.415 61.688C156.751 61.56 157.079 61.384 157.399 61.16C157.719 60.92 158.007 60.632 158.263 60.296L158.863 62.072H157.879V53.264H161.407V65H158.791L158.071 62.672L159.271 62.768C158.887 63.216 158.439 63.64 157.927 64.04C157.431 64.424 156.903 64.728 156.343 64.952C155.783 65.176 155.191 65.288 154.567 65.288ZM169.152 65.192C167.856 65.192 166.832 64.872 166.08 64.232C165.344 63.592 164.976 62.544 164.976 61.088V53.408L164.928 53.264L165.648 50.432H168.48V60.32C168.48 60.864 168.608 61.256 168.864 61.496C169.12 61.72 169.456 61.832 169.872 61.832C170.112 61.832 170.336 61.816 170.544 61.784C170.768 61.736 170.952 61.688 171.096 61.64V64.928C170.824 65.008 170.528 65.072 170.208 65.12C169.904 65.168 169.552 65.192 169.152 65.192ZM163.152 56.48V53.264H171.096V56.48H163.152Z" fill="#222120"/>
<path d="M185.982 65.264C184.942 65.264 184.03 65.008 183.246 64.496C182.478 63.984 181.87 63.272 181.422 62.36C180.99 61.432 180.774 60.352 180.774 59.12C180.774 57.872 180.99 56.792 181.422 55.88C181.854 54.952 182.454 54.248 183.222 53.768C184.006 53.272 184.926 53.024 185.982 53.024C187.054 53.024 187.998 53.28 188.814 53.792C189.63 54.304 190.262 55.016 190.71 55.928C191.158 56.84 191.382 57.904 191.382 59.12C191.382 60.336 191.158 61.408 190.71 62.336C190.262 63.248 189.63 63.968 188.814 64.496C188.014 65.008 187.07 65.264 185.982 65.264ZM179.862 65V48.656H182.646V56.168H182.406V62.432H182.646L181.95 65H179.862ZM185.526 62.768C186.422 62.768 187.15 62.432 187.71 61.76C188.27 61.088 188.55 60.208 188.55 59.12C188.55 58.048 188.27 57.184 187.71 56.528C187.15 55.856 186.422 55.52 185.526 55.52C184.646 55.52 183.918 55.856 183.342 56.528C182.782 57.184 182.502 58.056 182.502 59.144C182.502 60.232 182.782 61.112 183.342 61.784C183.918 62.44 184.646 62.768 185.526 62.768ZM196.468 63.728L191.812 53.288H194.692L198.916 62.768L196.468 63.728ZM193.588 69.56L200.86 53.288H203.74L196.468 69.56H193.588ZM211.98 65V48.656H217.572C218.756 48.656 219.732 48.816 220.5 49.136C221.284 49.456 221.868 49.944 222.252 50.6C222.652 51.256 222.852 52.08 222.852 53.072C222.852 53.888 222.652 54.608 222.252 55.232C221.868 55.856 221.348 56.344 220.692 56.696C220.052 57.032 219.348 57.2 218.58 57.2L218.7 56.12C219.676 56.12 220.508 56.296 221.196 56.648C221.884 57 222.42 57.496 222.804 58.136C223.188 58.776 223.38 59.536 223.38 60.416C223.38 61.92 222.916 63.064 221.988 63.848C221.06 64.616 219.724 65 217.98 65H211.98ZM214.764 50.264V63.224L213.708 62.336H218.004C218.804 62.336 219.428 62.128 219.876 61.712C220.324 61.296 220.548 60.752 220.548 60.08C220.548 59.344 220.332 58.784 219.9 58.4C219.468 58.016 218.852 57.824 218.052 57.824H213.708V55.352H217.62C218.404 55.352 218.996 55.184 219.396 54.848C219.812 54.512 220.02 54.016 220.02 53.36C220.02 52.752 219.812 52.264 219.396 51.896C218.98 51.512 218.388 51.32 217.62 51.32H213.804L214.764 50.264ZM227.981 53.288L228.677 56.48V65H225.893V53.288H227.981ZM228.173 57.8L227.597 57.536V55.448L227.813 55.16C227.973 54.888 228.229 54.584 228.581 54.248C228.933 53.912 229.341 53.624 229.805 53.384C230.285 53.144 230.773 53.024 231.269 53.024C231.509 53.024 231.733 53.04 231.941 53.072C232.165 53.104 232.333 53.16 232.445 53.24V55.76H231.677C230.621 55.76 229.829 55.928 229.301 56.264C228.773 56.584 228.397 57.096 228.173 57.8ZM238.98 65.264C237.78 65.264 236.724 65.008 235.812 64.496C234.9 63.984 234.188 63.272 233.676 62.36C233.18 61.432 232.932 60.368 232.932 59.168C232.932 57.936 233.18 56.864 233.676 55.952C234.188 55.024 234.9 54.304 235.812 53.792C236.724 53.28 237.78 53.024 238.98 53.024C240.18 53.024 241.236 53.28 242.148 53.792C243.06 54.304 243.764 55.024 244.26 55.952C244.772 56.864 245.028 57.936 245.028 59.168C245.028 60.368 244.772 61.432 244.26 62.36C243.764 63.272 243.06 63.984 242.148 64.496C241.236 65.008 240.18 65.264 238.98 65.264ZM238.98 62.576C239.94 62.576 240.716 62.264 241.308 61.64C241.9 61 242.196 60.168 242.196 59.144C242.196 58.12 241.9 57.296 241.308 56.672C240.716 56.032 239.94 55.712 238.98 55.712C238.02 55.712 237.244 56.024 236.652 56.648C236.06 57.272 235.764 58.104 235.764 59.144C235.764 60.168 236.06 61 236.652 61.64C237.244 62.264 238.02 62.576 238.98 62.576ZM250.541 65.336C249.645 65.336 248.869 65.176 248.213 64.856C247.573 64.52 247.077 64.056 246.725 63.464C246.373 62.872 246.197 62.168 246.197 61.352C246.197 60.552 246.373 59.856 246.725 59.264C247.093 58.672 247.605 58.208 248.261 57.872C248.917 57.52 249.677 57.344 250.541 57.344C251.677 57.344 252.589 57.6 253.277 58.112C253.981 58.624 254.461 59.344 254.717 60.272L253.325 60.176V57.272C253.325 56.792 253.157 56.36 252.821 55.976C252.501 55.592 251.949 55.4 251.165 55.4C250.717 55.4 250.221 55.456 249.677 55.568C249.133 55.664 248.573 55.848 247.997 56.12L247.157 54.056C247.829 53.72 248.533 53.464 249.269 53.288C250.021 53.112 250.765 53.024 251.501 53.024C252.541 53.024 253.397 53.216 254.069 53.6C254.757 53.968 255.269 54.472 255.605 55.112C255.941 55.752 256.109 56.488 256.109 57.32V65H253.973L253.349 62.816L254.717 62.408C254.445 63.368 253.941 64.096 253.205 64.592C252.485 65.088 251.597 65.336 250.541 65.336ZM251.189 63.056C251.829 63.056 252.341 62.904 252.725 62.6C253.125 62.296 253.325 61.88 253.325 61.352C253.325 60.792 253.125 60.368 252.725 60.08C252.341 59.776 251.829 59.624 251.189 59.624C250.549 59.624 250.029 59.776 249.629 60.08C249.245 60.368 249.053 60.792 249.053 61.352C249.053 61.88 249.245 62.296 249.629 62.6C250.029 62.904 250.549 63.056 251.189 63.056ZM263.55 65.264C262.494 65.264 261.558 65.008 260.742 64.496C259.926 63.968 259.286 63.248 258.822 62.336C258.374 61.408 258.15 60.336 258.15 59.12C258.15 57.904 258.374 56.84 258.822 55.928C259.286 55.016 259.926 54.304 260.742 53.792C261.558 53.28 262.502 53.024 263.574 53.024C264.614 53.024 265.518 53.272 266.286 53.768C267.07 54.248 267.678 54.952 268.11 55.88C268.542 56.792 268.758 57.872 268.758 59.12C268.758 60.352 268.542 61.432 268.11 62.36C267.678 63.272 267.07 63.984 266.286 64.496C265.502 65.008 264.59 65.264 263.55 65.264ZM264.03 62.768C264.926 62.768 265.646 62.44 266.19 61.784C266.75 61.112 267.03 60.232 267.03 59.144C267.03 58.056 266.75 57.184 266.19 56.528C265.646 55.856 264.926 55.52 264.03 55.52C263.134 55.52 262.398 55.856 261.822 56.528C261.262 57.184 260.982 58.048 260.982 59.12C260.982 60.208 261.262 61.088 261.822 61.76C262.398 62.432 263.134 62.768 264.03 62.768ZM267.582 65L266.91 62.432H267.126V56.168H266.91V48.656H269.694V65H267.582ZM275.029 65L271.381 53.288H274.141L276.613 62.072H276.013L278.821 53.288H281.197L284.029 62.072H283.429L285.901 53.288H288.613L284.965 65H282.541L279.709 56.24H280.333L277.501 65H275.029ZM293.22 65.336C292.324 65.336 291.548 65.176 290.892 64.856C290.252 64.52 289.756 64.056 289.404 63.464C289.052 62.872 288.876 62.168 288.876 61.352C288.876 60.552 289.052 59.856 289.404 59.264C289.772 58.672 290.284 58.208 290.94 57.872C291.596 57.52 292.356 57.344 293.22 57.344C294.356 57.344 295.268 57.6 295.956 58.112C296.66 58.624 297.14 59.344 297.396 60.272L296.004 60.176V57.272C296.004 56.792 295.836 56.36 295.5 55.976C295.18 55.592 294.628 55.4 293.844 55.4C293.396 55.4 292.9 55.456 292.356 55.568C291.812 55.664 291.252 55.848 290.676 56.12L289.836 54.056C290.508 53.72 291.212 53.464 291.948 53.288C292.7 53.112 293.444 53.024 294.18 53.024C295.22 53.024 296.076 53.216 296.748 53.6C297.436 53.968 297.948 54.472 298.284 55.112C298.62 55.752 298.788 56.488 298.788 57.32V65H296.652L296.028 62.816L297.396 62.408C297.124 63.368 296.62 64.096 295.884 64.592C295.164 65.088 294.276 65.336 293.22 65.336ZM293.868 63.056C294.508 63.056 295.02 62.904 295.404 62.6C295.804 62.296 296.004 61.88 296.004 61.352C296.004 60.792 295.804 60.368 295.404 60.08C295.02 59.776 294.508 59.624 293.868 59.624C293.228 59.624 292.708 59.776 292.308 60.08C291.924 60.368 291.732 60.792 291.732 61.352C291.732 61.88 291.924 62.296 292.308 62.6C292.708 62.904 293.228 63.056 293.868 63.056ZM304.445 63.728L299.789 53.288H302.669L306.893 62.768L304.445 63.728ZM301.565 69.56L308.837 53.288H311.717L304.445 69.56H301.565ZM318.877 65L321.829 48.656H324.325L328.597 60.32L332.893 48.656H335.365L338.341 65H335.461L334.213 57.392C334.037 56.32 333.885 55.264 333.757 54.224C333.629 53.168 333.541 52.104 333.493 51.032H334.237C333.949 52.264 333.661 53.376 333.373 54.368C333.085 55.344 332.757 56.344 332.389 57.368L329.677 64.76H327.517L324.805 57.368C324.437 56.328 324.109 55.32 323.821 54.344C323.533 53.368 323.245 52.264 322.957 51.032H323.701C323.653 52.104 323.565 53.168 323.437 54.224C323.325 55.264 323.173 56.32 322.981 57.392L321.733 65H318.877ZM345.567 65.24C344.415 65.24 343.407 64.992 342.543 64.496C341.679 63.984 340.999 63.272 340.503 62.36C340.023 61.448 339.783 60.384 339.783 59.168C339.783 57.936 340.023 56.864 340.503 55.952C340.999 55.024 341.679 54.304 342.543 53.792C343.407 53.28 344.415 53.024 345.567 53.024C346.735 53.024 347.751 53.288 348.615 53.816C349.495 54.328 350.175 55.048 350.655 55.976C351.135 56.888 351.375 57.944 351.375 59.144C351.375 59.288 351.367 59.432 351.351 59.576C351.351 59.72 351.343 59.848 351.327 59.96H342.23V57.728H349.263L348.687 59C348.687 57.896 348.431 56.992 347.919 56.288C347.407 55.584 346.631 55.232 345.591 55.232C344.647 55.232 343.895 55.528 343.335 56.12C342.791 56.696 342.519 57.464 342.519 58.424V59.696C342.519 60.688 342.791 61.48 343.335 62.072C343.895 62.648 344.663 62.936 345.639 62.936C346.519 62.936 347.199 62.752 347.679 62.384C348.175 62.016 348.599 61.56 348.951 61.016L350.943 62.216C350.415 63.208 349.711 63.96 348.831 64.472C347.951 64.984 346.863 65.24 345.567 65.24ZM358.143 65.264C357.087 65.264 356.151 65.008 355.335 64.496C354.519 63.968 353.879 63.248 353.415 62.336C352.967 61.408 352.743 60.336 352.743 59.12C352.743 57.904 352.967 56.84 353.415 55.928C353.879 55.016 354.519 54.304 355.335 53.792C356.151 53.28 357.095 53.024 358.167 53.024C359.207 53.024 360.111 53.272 360.879 53.768C361.663 54.248 362.271 54.952 362.703 55.88C363.135 56.792 363.351 57.872 363.351 59.12C363.351 60.352 363.135 61.432 362.703 62.36C362.271 63.272 361.663 63.984 360.879 64.496C360.095 65.008 359.183 65.264 358.143 65.264ZM358.623 62.768C359.519 62.768 360.239 62.44 360.783 61.784C361.343 61.112 361.623 60.232 361.623 59.144C361.623 58.056 361.343 57.184 360.783 56.528C360.239 55.856 359.519 55.52 358.623 55.52C357.727 55.52 356.991 55.856 356.415 56.528C355.855 57.184 355.575 58.048 355.575 59.12C355.575 60.208 355.855 61.088 356.415 61.76C356.991 62.432 357.727 62.768 358.623 62.768ZM362.175 65L361.503 62.432H361.719V56.168H361.503V48.656H364.287V65H362.175ZM369.983 65H367.199V53.288H369.983V65ZM366.839 49.64C366.839 49.128 366.991 48.712 367.295 48.392C367.615 48.056 368.047 47.888 368.591 47.888C369.103 47.888 369.519 48.056 369.839 48.392C370.159 48.712 370.319 49.128 370.319 49.64C370.319 50.152 370.159 50.568 369.839 50.888C369.519 51.208 369.103 51.368 368.591 51.368C368.047 51.368 367.615 51.208 367.295 50.888C366.991 50.568 366.839 50.152 366.839 49.64ZM376.447 65.336C375.551 65.336 374.775 65.176 374.119 64.856C373.479 64.52 372.983 64.056 372.631 63.464C372.279 62.872 372.103 62.168 372.103 61.352C372.103 60.552 372.279 59.856 372.631 59.264C372.999 58.672 373.511 58.208 374.167 57.872C374.823 57.52 375.583 57.344 376.447 57.344C377.583 57.344 378.495 57.6 379.183 58.112C379.887 58.624 380.367 59.344 380.623 60.272L379.231 60.176V57.272C379.231 56.792 379.063 56.36 378.727 55.976C378.407 55.592 377.855 55.4 377.071 55.4C376.623 55.4 376.127 55.456 375.583 55.568C375.039 55.664 374.479 55.848 373.903 56.12L373.063 54.056C373.735 53.72 374.439 53.464 375.175 53.288C375.927 53.112 376.671 53.024 377.407 53.024C378.447 53.024 379.303 53.216 379.975 53.6C380.663 53.968 381.175 54.472 381.511 55.112C381.847 55.752 382.015 56.488 382.015 57.32V65H379.879L379.255 62.816L380.623 62.408C380.351 63.368 379.847 64.096 379.111 64.592C378.391 65.088 377.503 65.336 376.447 65.336ZM377.095 63.056C377.735 63.056 378.247 62.904 378.631 62.6C379.031 62.296 379.231 61.88 379.231 61.352C379.231 60.792 379.031 60.368 378.631 60.08C378.247 59.776 377.735 59.624 377.095 59.624C376.455 59.624 375.935 59.776 375.535 60.08C375.151 60.368 374.959 60.792 374.959 61.352C374.959 61.88 375.151 62.296 375.535 62.6C375.935 62.904 376.455 63.056 377.095 63.056Z" fill="#998C74"/>
<path d="M0 112H748V172C748 183.046 739.046 192 728 192H20C8.95432 192 0 183.046 0 172V112Z" fill="url(#paint6_linear_1_4)"/>
<path d="M0.5 112.5H747.5V172C747.5 182.77 738.77 191.5 728 191.5H20C9.23046 191.5 0.5 182.77 0.5 172V112.5Z" stroke="black" stroke-opacity="0.1"/>
<rect x="28" y="140" width="87" height="24" rx="5" fill="#482307" fill-opacity="0.25"/>
<path d="M40.806 157V150.5H42.171L42.262 151.696V157H40.806ZM45.213 157V153.672H46.669V157H45.213ZM45.213 153.672C45.213 153.152 45.1523 152.753 45.031 152.476C44.9183 152.19 44.7537 151.991 44.537 151.878C44.329 151.765 44.082 151.709 43.796 151.709C43.3107 151.7 42.9337 151.861 42.665 152.19C42.3963 152.519 42.262 152.992 42.262 153.607H41.716C41.716 152.922 41.8157 152.337 42.015 151.852C42.2143 151.358 42.5003 150.985 42.873 150.734C43.2457 150.474 43.6877 150.344 44.199 150.344C44.719 150.344 45.161 150.448 45.525 150.656C45.8977 150.864 46.1793 151.189 46.37 151.631C46.5693 152.064 46.669 152.632 46.669 153.334V153.672H45.213ZM48.2089 159.6V150.5H49.5739L49.6649 151.696V159.6H48.2089ZM51.7189 157.156C51.1729 157.156 50.7006 157.017 50.3019 156.74C49.9119 156.454 49.6129 156.055 49.4049 155.544C49.1969 155.033 49.0929 154.435 49.0929 153.75C49.0929 153.057 49.1969 152.459 49.4049 151.956C49.6129 151.445 49.9119 151.05 50.3019 150.773C50.7006 150.487 51.1729 150.344 51.7189 150.344C52.3082 150.344 52.8196 150.487 53.2529 150.773C53.6949 151.05 54.0372 151.445 54.2799 151.956C54.5312 152.459 54.6569 153.057 54.6569 153.75C54.6569 154.435 54.5312 155.033 54.2799 155.544C54.0372 156.055 53.6949 156.454 53.2529 156.74C52.8196 157.017 52.3082 157.156 51.7189 157.156ZM51.3549 155.83C51.7016 155.83 52.0092 155.743 52.2779 155.57C52.5466 155.388 52.7589 155.141 52.9149 154.829C53.0796 154.517 53.1619 154.157 53.1619 153.75C53.1619 153.343 53.0839 152.983 52.9279 152.671C52.7806 152.359 52.5726 152.116 52.3039 151.943C52.0352 151.77 51.7232 151.683 51.3679 151.683C51.0386 151.683 50.7439 151.77 50.4839 151.943C50.2239 152.116 50.0202 152.359 49.8729 152.671C49.7342 152.983 49.6649 153.343 49.6649 153.75C49.6649 154.157 49.7342 154.517 49.8729 154.829C50.0202 155.141 50.2196 155.388 50.4709 155.57C50.7309 155.743 51.0256 155.83 51.3549 155.83ZM55.9007 157V150.5H57.2657L57.3307 151.371C57.5301 151.033 57.7857 150.777 58.0977 150.604C58.4097 150.431 58.7651 150.344 59.1637 150.344C59.6837 150.344 60.1257 150.461 60.4897 150.695C60.8537 150.929 61.1181 151.284 61.2827 151.761C61.4734 151.302 61.7421 150.951 62.0887 150.708C62.4354 150.465 62.8427 150.344 63.3107 150.344C64.0647 150.344 64.6454 150.587 65.0527 151.072C65.4601 151.549 65.6594 152.285 65.6507 153.282V157H64.2077V153.672C64.2077 153.152 64.1514 152.753 64.0387 152.476C63.9261 152.19 63.7744 151.991 63.5837 151.878C63.3931 151.765 63.1721 151.709 62.9207 151.709C62.4701 151.7 62.1191 151.861 61.8677 152.19C61.6251 152.519 61.5037 152.992 61.5037 153.607V157H60.0477V153.672C60.0477 153.152 59.9914 152.753 59.8787 152.476C59.7747 152.19 59.6274 151.991 59.4367 151.878C59.2461 151.765 59.0251 151.709 58.7737 151.709C58.3231 151.7 57.9721 151.861 57.7207 152.19C57.4781 152.519 57.3567 152.992 57.3567 153.607V157H55.9007Z" fill="white"/>
<path d="M76.173 157.156C75.471 157.156 74.847 156.957 74.301 156.558C73.755 156.151 73.326 155.596 73.014 154.894C72.7107 154.183 72.559 153.369 72.559 152.45C72.559 151.531 72.7107 150.721 73.014 150.019C73.326 149.308 73.7507 148.754 74.288 148.355C74.834 147.948 75.4623 147.744 76.173 147.744C76.8837 147.744 77.5077 147.948 78.045 148.355C78.591 148.754 79.02 149.308 79.332 150.019C79.644 150.721 79.8 151.531 79.8 152.45C79.8 153.369 79.644 154.183 79.332 154.894C79.0287 155.596 78.604 156.151 78.058 156.558C77.512 156.957 76.8837 157.156 76.173 157.156ZM76.173 155.986C76.6323 155.986 77.0397 155.834 77.395 155.531C77.759 155.228 78.0407 154.812 78.24 154.283C78.4393 153.754 78.539 153.143 78.539 152.45C78.539 151.757 78.4393 151.146 78.24 150.617C78.0407 150.08 77.759 149.659 77.395 149.356C77.0397 149.053 76.6323 148.901 76.173 148.901C75.7137 148.901 75.3063 149.053 74.951 149.356C74.5957 149.659 74.3183 150.08 74.119 150.617C73.9197 151.146 73.82 151.757 73.82 152.45C73.82 153.143 73.9197 153.759 74.119 154.296C74.3183 154.825 74.5957 155.241 74.951 155.544C75.3063 155.839 75.7137 155.986 76.173 155.986ZM81.7705 157.182C81.5538 157.182 81.3632 157.104 81.1985 156.948C81.0425 156.792 80.9645 156.601 80.9645 156.376C80.9645 156.151 81.0425 155.96 81.1985 155.804C81.3632 155.648 81.5538 155.57 81.7705 155.57C81.9958 155.57 82.1865 155.648 82.3425 155.804C82.5072 155.96 82.5895 156.151 82.5895 156.376C82.5895 156.601 82.5072 156.792 82.3425 156.948C82.1865 157.104 81.9958 157.182 81.7705 157.182ZM87.3703 157.156C86.6683 157.156 86.0443 156.957 85.4983 156.558C84.9523 156.151 84.5233 155.596 84.2113 154.894C83.9079 154.183 83.7563 153.369 83.7563 152.45C83.7563 151.531 83.9079 150.721 84.2113 150.019C84.5233 149.308 84.9479 148.754 85.4853 148.355C86.0313 147.948 86.6596 147.744 87.3703 147.744C88.0809 147.744 88.7049 147.948 89.2423 148.355C89.7883 148.754 90.2173 149.308 90.5293 150.019C90.8413 150.721 90.9973 151.531 90.9973 152.45C90.9973 153.369 90.8413 154.183 90.5293 154.894C90.2259 155.596 89.8013 156.151 89.2553 156.558C88.7093 156.957 88.0809 157.156 87.3703 157.156ZM87.3703 155.986C87.8296 155.986 88.2369 155.834 88.5923 155.531C88.9563 155.228 89.2379 154.812 89.4373 154.283C89.6366 153.754 89.7363 153.143 89.7363 152.45C89.7363 151.757 89.6366 151.146 89.4373 150.617C89.2379 150.08 88.9563 149.659 88.5923 149.356C88.2369 149.053 87.8296 148.901 87.3703 148.901C86.9109 148.901 86.5036 149.053 86.1483 149.356C85.7929 149.659 85.5156 150.08 85.3163 150.617C85.1169 151.146 85.0173 151.757 85.0173 152.45C85.0173 153.143 85.1169 153.759 85.3163 154.296C85.5156 154.825 85.7929 155.241 86.1483 155.544C86.5036 155.839 86.9109 155.986 87.3703 155.986ZM92.9678 157.182C92.7511 157.182 92.5604 157.104 92.3958 156.948C92.2398 156.792 92.1618 156.601 92.1618 156.376C92.1618 156.151 92.2398 155.96 92.3958 155.804C92.5604 155.648 92.7511 155.57 92.9678 155.57C93.1931 155.57 93.3838 155.648 93.5398 155.804C93.7044 155.96 93.7868 156.151 93.7868 156.376C93.7868 156.601 93.7044 156.792 93.5398 156.948C93.3838 157.104 93.1931 157.182 92.9678 157.182ZM98.5675 157.156C97.8655 157.156 97.2415 156.957 96.6955 156.558C96.1495 156.151 95.7205 155.596 95.4085 154.894C95.1052 154.183 94.9535 153.369 94.9535 152.45C94.9535 151.531 95.1052 150.721 95.4085 150.019C95.7205 149.308 96.1452 148.754 96.6825 148.355C97.2285 147.948 97.8569 147.744 98.5675 147.744C99.2782 147.744 99.9022 147.948 100.44 148.355C100.986 148.754 101.415 149.308 101.727 150.019C102.039 150.721 102.195 151.531 102.195 152.45C102.195 153.369 102.039 154.183 101.727 154.894C101.423 155.596 100.999 156.151 100.453 156.558C99.9065 156.957 99.2782 157.156 98.5675 157.156ZM98.5675 155.986C99.0269 155.986 99.4342 155.834 99.7895 155.531C100.154 155.228 100.435 154.812 100.635 154.283C100.834 153.754 100.934 153.143 100.934 152.45C100.934 151.757 100.834 151.146 100.635 150.617C100.435 150.08 100.154 149.659 99.7895 149.356C99.4342 149.053 99.0269 148.901 98.5675 148.901C98.1082 148.901 97.7009 149.053 97.3455 149.356C96.9902 149.659 96.7129 150.08 96.5135 150.617C96.3142 151.146 96.2145 151.757 96.2145 152.45C96.2145 153.143 96.3142 153.759 96.5135 154.296C96.7129 154.825 96.9902 155.241 97.3455 155.544C97.7009 155.839 98.1082 155.986 98.5675 155.986Z" fill="white" fill-opacity="0.75"/>
<rect x="125" y="140" width="139" height="24" rx="5" fill="#482307" fill-opacity="0.25"/>
<path d="M137.806 157V150.5H139.171L139.236 151.371C139.435 151.033 139.691 150.777 140.003 150.604C140.315 150.431 140.67 150.344 141.069 150.344C141.589 150.344 142.031 150.461 142.395 150.695C142.759 150.929 143.023 151.284 143.188 151.761C143.379 151.302 143.647 150.951 143.994 150.708C144.341 150.465 144.748 150.344 145.216 150.344C145.97 150.344 146.551 150.587 146.958 151.072C147.365 151.549 147.565 152.285 147.556 153.282V157H146.113V153.672C146.113 153.152 146.057 152.753 145.944 152.476C145.831 152.19 145.68 151.991 145.489 151.878C145.298 151.765 145.077 151.709 144.826 151.709C144.375 151.7 144.024 151.861 143.773 152.19C143.53 152.519 143.409 152.992 143.409 153.607V157H141.953V153.672C141.953 153.152 141.897 152.753 141.784 152.476C141.68 152.19 141.533 151.991 141.342 151.878C141.151 151.765 140.93 151.709 140.679 151.709C140.228 151.7 139.877 151.861 139.626 152.19C139.383 152.519 139.262 152.992 139.262 153.607V157H137.806ZM149.132 157V150.5H150.575V157H149.132ZM149.86 149.265C149.626 149.265 149.423 149.183 149.249 149.018C149.085 148.845 149.002 148.641 149.002 148.407C149.002 148.173 149.085 147.974 149.249 147.809C149.423 147.644 149.626 147.562 149.86 147.562C150.094 147.562 150.294 147.644 150.458 147.809C150.632 147.974 150.718 148.173 150.718 148.407C150.718 148.641 150.632 148.845 150.458 149.018C150.294 149.183 150.094 149.265 149.86 149.265ZM152.291 157V150.5H153.656L153.747 151.696V157H152.291ZM156.698 157V153.672H158.154V157H156.698ZM156.698 153.672C156.698 153.152 156.638 152.753 156.516 152.476C156.404 152.19 156.239 151.991 156.022 151.878C155.814 151.765 155.567 151.709 155.281 151.709C154.796 151.7 154.419 151.861 154.15 152.19C153.882 152.519 153.747 152.992 153.747 153.607H153.201C153.201 152.922 153.301 152.337 153.5 151.852C153.7 151.358 153.986 150.985 154.358 150.734C154.731 150.474 155.173 150.344 155.684 150.344C156.204 150.344 156.646 150.448 157.01 150.656C157.383 150.864 157.665 151.189 157.855 151.631C158.055 152.064 158.154 152.632 158.154 153.334V153.672H156.698ZM159.304 157V155.921L162.762 151.722H159.304V150.5H164.595V151.566L161.137 155.791H164.621V157H159.304ZM166.004 157V150.5H167.447V157H166.004ZM166.732 149.265C166.498 149.265 166.295 149.183 166.121 149.018C165.957 148.845 165.874 148.641 165.874 148.407C165.874 148.173 165.957 147.974 166.121 147.809C166.295 147.644 166.498 147.562 166.732 147.562C166.966 147.562 167.166 147.644 167.33 147.809C167.504 147.974 167.59 148.173 167.59 148.407C167.59 148.641 167.504 148.845 167.33 149.018C167.166 149.183 166.966 149.265 166.732 149.265ZM169.228 159.6V150.5H170.593L170.684 151.696V159.6H169.228ZM172.738 157.156C172.192 157.156 171.72 157.017 171.321 156.74C170.931 156.454 170.632 156.055 170.424 155.544C170.216 155.033 170.112 154.435 170.112 153.75C170.112 153.057 170.216 152.459 170.424 151.956C170.632 151.445 170.931 151.05 171.321 150.773C171.72 150.487 172.192 150.344 172.738 150.344C173.328 150.344 173.839 150.487 174.272 150.773C174.714 151.05 175.057 151.445 175.299 151.956C175.551 152.459 175.676 153.057 175.676 153.75C175.676 154.435 175.551 155.033 175.299 155.544C175.057 156.055 174.714 156.454 174.272 156.74C173.839 157.017 173.328 157.156 172.738 157.156ZM172.374 155.83C172.721 155.83 173.029 155.743 173.297 155.57C173.566 155.388 173.778 155.141 173.934 154.829C174.099 154.517 174.181 154.157 174.181 153.75C174.181 153.343 174.103 152.983 173.947 152.671C173.8 152.359 173.592 152.116 173.323 151.943C173.055 151.77 172.743 151.683 172.387 151.683C172.058 151.683 171.763 151.77 171.503 151.943C171.243 152.116 171.04 152.359 170.892 152.671C170.754 152.983 170.684 153.343 170.684 153.75C170.684 154.157 170.754 154.517 170.892 154.829C171.04 155.141 171.239 155.388 171.49 155.57C171.75 155.743 172.045 155.83 172.374 155.83ZM176.985 159.6V150.5H178.35L178.441 151.696V159.6H176.985ZM180.495 157.156C179.949 157.156 179.477 157.017 179.078 156.74C178.688 156.454 178.389 156.055 178.181 155.544C177.973 155.033 177.869 154.435 177.869 153.75C177.869 153.057 177.973 152.459 178.181 151.956C178.389 151.445 178.688 151.05 179.078 150.773C179.477 150.487 179.949 150.344 180.495 150.344C181.085 150.344 181.596 150.487 182.029 150.773C182.471 151.05 182.814 151.445 183.056 151.956C183.308 152.459 183.433 153.057 183.433 153.75C183.433 154.435 183.308 155.033 183.056 155.544C182.814 156.055 182.471 156.454 182.029 156.74C181.596 157.017 181.085 157.156 180.495 157.156ZM180.131 155.83C180.478 155.83 180.786 155.743 181.054 155.57C181.323 155.388 181.535 155.141 181.691 154.829C181.856 154.517 181.938 154.157 181.938 153.75C181.938 153.343 181.86 152.983 181.704 152.671C181.557 152.359 181.349 152.116 181.08 151.943C180.812 151.77 180.5 151.683 180.144 151.683C179.815 151.683 179.52 151.77 179.26 151.943C179 152.116 178.797 152.359 178.649 152.671C178.511 152.983 178.441 153.343 178.441 153.75C178.441 154.157 178.511 154.517 178.649 154.829C178.797 155.141 178.996 155.388 179.247 155.57C179.507 155.743 179.802 155.83 180.131 155.83ZM187.576 157.156C186.943 157.156 186.38 157.013 185.886 156.727C185.401 156.432 185.015 156.029 184.729 155.518C184.452 155.007 184.313 154.417 184.313 153.75C184.313 153.083 184.456 152.493 184.742 151.982C185.028 151.471 185.418 151.072 185.912 150.786C186.415 150.491 186.987 150.344 187.628 150.344C188.209 150.344 188.733 150.496 189.201 150.799C189.669 151.094 190.037 151.523 190.306 152.086C190.583 152.649 190.722 153.321 190.722 154.101H185.613L185.808 153.919C185.808 154.318 185.895 154.664 186.068 154.959C186.241 155.245 186.471 155.466 186.757 155.622C187.043 155.778 187.359 155.856 187.706 155.856C188.105 155.856 188.434 155.769 188.694 155.596C188.954 155.414 189.158 155.18 189.305 154.894L190.592 155.44C190.41 155.787 190.176 156.09 189.89 156.35C189.613 156.61 189.279 156.809 188.889 156.948C188.508 157.087 188.07 157.156 187.576 157.156ZM185.899 153.165L185.691 152.983H189.357L189.162 153.165C189.162 152.81 189.084 152.519 188.928 152.294C188.772 152.06 188.573 151.887 188.33 151.774C188.096 151.653 187.849 151.592 187.589 151.592C187.329 151.592 187.069 151.653 186.809 151.774C186.549 151.887 186.332 152.06 186.159 152.294C185.986 152.519 185.899 152.81 185.899 153.165ZM196.53 157L196.465 155.791V147.9H197.908V157H196.53ZM194.411 157.156C193.822 157.156 193.306 157.017 192.864 156.74C192.431 156.454 192.089 156.055 191.837 155.544C191.595 155.033 191.473 154.435 191.473 153.75C191.473 153.057 191.595 152.459 191.837 151.956C192.089 151.445 192.431 151.05 192.864 150.773C193.306 150.487 193.822 150.344 194.411 150.344C194.957 150.344 195.425 150.487 195.815 150.773C196.214 151.05 196.517 151.445 196.725 151.956C196.933 152.459 197.037 153.057 197.037 153.75C197.037 154.435 196.933 155.033 196.725 155.544C196.517 156.055 196.214 156.454 195.815 156.74C195.425 157.017 194.957 157.156 194.411 157.156ZM194.775 155.83C195.105 155.83 195.395 155.743 195.646 155.57C195.906 155.388 196.106 155.141 196.244 154.829C196.392 154.517 196.465 154.157 196.465 153.75C196.465 153.343 196.392 152.983 196.244 152.671C196.106 152.359 195.906 152.116 195.646 151.943C195.395 151.77 195.1 151.683 194.762 151.683C194.416 151.683 194.108 151.77 193.839 151.943C193.571 152.116 193.358 152.359 193.202 152.671C193.055 152.983 192.977 153.343 192.968 153.75C192.977 154.157 193.055 154.517 193.202 154.829C193.358 155.141 193.571 155.388 193.839 155.57C194.117 155.743 194.429 155.83 194.775 155.83ZM205.02 157.156C204.586 157.156 204.188 157.091 203.824 156.961C203.46 156.831 203.148 156.649 202.888 156.415C202.628 156.172 202.428 155.891 202.29 155.57L203.551 155.011C203.681 155.254 203.871 155.457 204.123 155.622C204.383 155.787 204.669 155.869 204.981 155.869C205.319 155.869 205.587 155.813 205.787 155.7C205.995 155.579 206.099 155.414 206.099 155.206C206.099 155.007 206.021 154.855 205.865 154.751C205.709 154.638 205.488 154.547 205.202 154.478L204.591 154.309C203.975 154.153 203.494 153.906 203.148 153.568C202.801 153.221 202.628 152.827 202.628 152.385C202.628 151.735 202.836 151.232 203.252 150.877C203.676 150.522 204.283 150.344 205.072 150.344C205.47 150.344 205.834 150.405 206.164 150.526C206.502 150.639 206.792 150.803 207.035 151.02C207.277 151.228 207.446 151.475 207.542 151.761L206.333 152.307C206.246 152.09 206.081 151.926 205.839 151.813C205.596 151.692 205.327 151.631 205.033 151.631C204.738 151.631 204.508 151.696 204.344 151.826C204.179 151.947 204.097 152.121 204.097 152.346C204.097 152.476 204.17 152.597 204.318 152.71C204.465 152.814 204.677 152.901 204.955 152.97L205.722 153.152C206.146 153.256 206.493 153.421 206.762 153.646C207.03 153.863 207.23 154.11 207.36 154.387C207.49 154.656 207.555 154.929 207.555 155.206C207.555 155.596 207.442 155.938 207.217 156.233C207 156.528 206.701 156.757 206.32 156.922C205.938 157.078 205.505 157.156 205.02 157.156ZM208.8 157V150.5H210.243V157H208.8ZM209.528 149.265C209.294 149.265 209.091 149.183 208.917 149.018C208.753 148.845 208.67 148.641 208.67 148.407C208.67 148.173 208.753 147.974 208.917 147.809C209.091 147.644 209.294 147.562 209.528 147.562C209.762 147.562 209.962 147.644 210.126 147.809C210.3 147.974 210.386 148.173 210.386 148.407C210.386 148.641 210.3 148.845 210.126 149.018C209.962 149.183 209.762 149.265 209.528 149.265ZM211.634 157V155.921L215.092 151.722H211.634V150.5H216.925V151.566L213.467 155.791H216.951V157H211.634ZM221.143 157.156C220.51 157.156 219.947 157.013 219.453 156.727C218.967 156.432 218.582 156.029 218.295 155.518C218.018 155.007 217.88 154.417 217.88 153.75C217.88 153.083 218.023 152.493 218.309 151.982C218.595 151.471 218.985 151.072 219.479 150.786C219.981 150.491 220.553 150.344 221.195 150.344C221.775 150.344 222.3 150.496 222.768 150.799C223.236 151.094 223.604 151.523 223.873 152.086C224.15 152.649 224.289 153.321 224.289 154.101H219.18L219.375 153.919C219.375 154.318 219.461 154.664 219.635 154.959C219.808 155.245 220.038 155.466 220.324 155.622C220.61 155.778 220.926 155.856 221.273 155.856C221.671 155.856 222.001 155.769 222.261 155.596C222.521 155.414 222.724 155.18 222.872 154.894L224.159 155.44C223.977 155.787 223.743 156.09 223.457 156.35C223.179 156.61 222.846 156.809 222.456 156.948C222.074 157.087 221.637 157.156 221.143 157.156ZM219.466 153.165L219.258 152.983H222.924L222.729 153.165C222.729 152.81 222.651 152.519 222.495 152.294C222.339 152.06 222.139 151.887 221.897 151.774C221.663 151.653 221.416 151.592 221.156 151.592C220.896 151.592 220.636 151.653 220.376 151.774C220.116 151.887 219.899 152.06 219.726 152.294C219.552 152.519 219.466 152.81 219.466 153.165Z" fill="white"/>
<path d="M230.728 157V155.973C230.728 155.704 230.789 155.427 230.91 155.141C231.04 154.846 231.222 154.556 231.456 154.27C231.699 153.984 231.985 153.72 232.314 153.477L234.069 152.177C234.277 152.03 234.463 151.861 234.628 151.67C234.801 151.471 234.936 151.267 235.031 151.059C235.135 150.842 235.187 150.63 235.187 150.422C235.187 150.145 235.118 149.893 234.979 149.668C234.84 149.434 234.645 149.252 234.394 149.122C234.143 148.983 233.844 148.914 233.497 148.914C233.168 148.914 232.877 148.979 232.626 149.109C232.383 149.23 232.18 149.395 232.015 149.603C231.85 149.811 231.733 150.032 231.664 150.266L230.351 150.019C230.446 149.62 230.633 149.248 230.91 148.901C231.187 148.554 231.543 148.277 231.976 148.069C232.409 147.852 232.899 147.744 233.445 147.744C234.069 147.744 234.606 147.861 235.057 148.095C235.516 148.32 235.872 148.637 236.123 149.044C236.374 149.443 236.5 149.902 236.5 150.422C236.5 150.925 236.361 151.388 236.084 151.813C235.815 152.238 235.425 152.649 234.914 153.048L233.289 154.27C232.968 154.513 232.713 154.764 232.522 155.024C232.34 155.284 232.227 155.561 232.184 155.856H236.617V157H230.728ZM239.392 155.037L238.625 154.192L242.044 150.5H243.552L239.392 155.037ZM238.196 157V147.9H239.431V157H238.196ZM242.317 157L239.925 153.438L240.731 152.58L243.799 157H242.317ZM244.696 157V147.9H245.931V155.791L245.866 157H244.696ZM248.063 157.156C247.517 157.156 247.04 157.013 246.633 156.727C246.234 156.441 245.927 156.042 245.71 155.531C245.493 155.02 245.385 154.426 245.385 153.75C245.385 153.065 245.493 152.472 245.71 151.969C245.927 151.458 246.234 151.059 246.633 150.773C247.04 150.487 247.517 150.344 248.063 150.344C248.644 150.344 249.155 150.487 249.597 150.773C250.039 151.059 250.381 151.458 250.624 151.969C250.875 152.472 251.001 153.065 251.001 153.75C251.001 154.426 250.875 155.02 250.624 155.531C250.381 156.042 250.039 156.441 249.597 156.727C249.155 157.013 248.644 157.156 248.063 157.156ZM247.764 156.038C248.154 156.038 248.496 155.943 248.791 155.752C249.086 155.553 249.315 155.284 249.48 154.946C249.653 154.599 249.74 154.201 249.74 153.75C249.74 153.299 249.658 152.905 249.493 152.567C249.328 152.22 249.099 151.952 248.804 151.761C248.509 151.562 248.167 151.462 247.777 151.462C247.422 151.462 247.101 151.562 246.815 151.761C246.538 151.952 246.321 152.22 246.165 152.567C246.009 152.914 245.931 153.308 245.931 153.75C245.931 154.201 246.009 154.599 246.165 154.946C246.321 155.284 246.538 155.553 246.815 155.752C247.092 155.943 247.409 156.038 247.764 156.038Z" fill="white" fill-opacity="0.75"/>
<defs>
<linearGradient id="paint0_linear_1_4" x1="374" y1="0" x2="374" y2="300.407" gradientUnits="userSpaceOnUse">
<stop stop-color="#FFDA92" stop-opacity="0.33"/>
<stop offset="1" stop-color="white" stop-opacity="0"/>
</linearGradient>
<linearGradient id="paint1_linear_1_4" x1="56" y1="78.0873" x2="56" y2="40.1217" gradientUnits="userSpaceOnUse">
<stop stop-color="#3C301F"/>
<stop offset="1" stop-color="#80776B"/>
</linearGradient>
<linearGradient id="paint2_linear_1_4" x1="57.085" y1="70.2123" x2="64.1317" y2="70.2123" gradientUnits="userSpaceOnUse">
<stop stop-color="#9CA5AD"/>
<stop offset="1" stop-color="#CDD2D6"/>
</linearGradient>
<radialGradient id="paint3_radial_1_4" cx="0" cy="0" r="1" gradientUnits="userSpaceOnUse" gradientTransform="translate(40.7272 56.3838) scale(0.413002 0.413)">
<stop offset="0.323" stop-color="#23D9D6"/>
<stop offset="0.427" stop-color="#23D4D7"/>
<stop offset="0.542" stop-color="#21C7DC"/>
<stop offset="0.664" stop-color="#1FB0E2"/>
<stop offset="0.789" stop-color="#1C91EC"/>
<stop offset="0.917" stop-color="#1969F8"/>
<stop offset="0.944" stop-color="#1860FB"/>
</radialGradient>
<linearGradient id="paint4_linear_1_4" x1="55.706" y1="92.057" x2="55.706" y2="49.4235" gradientUnits="userSpaceOnUse">
<stop offset="0.0885417" stop-color="#806135"/>
<stop offset="0.40625" stop-color="#E2B576"/>
<stop offset="0.645833" stop-color="#E2B576"/>
<stop offset="0.791667" stop-color="#F2CA91"/>
<stop offset="0.895833" stop-color="#FED9A5"/>
<stop offset="1" stop-color="#FADBB0"/>
</linearGradient>
<linearGradient id="paint5_linear_1_4" x1="55.712" y1="92.1294" x2="55.712" y2="49.3072" gradientUnits="userSpaceOnUse">
<stop offset="0.0885417" stop-color="#806135"/>
<stop offset="0.40625" stop-color="#E2B576"/>
<stop offset="0.645833" stop-color="#E2B576"/>
<stop offset="0.791667" stop-color="#F2CA91"/>
<stop offset="0.895833" stop-color="#FED9A5"/>
<stop offset="1" stop-color="#FADBB0"/>
</linearGradient>
<linearGradient id="paint6_linear_1_4" x1="374" y1="112" x2="374" y2="326.576" gradientUnits="userSpaceOnUse">
<stop stop-color="#A97C24" stop-opacity="0.15"/>
<stop offset="1" stop-color="white" stop-opacity="0"/>
</linearGradient>
</defs>
</svg>
