<svg width="849" height="192" viewBox="0 0 849 192" fill="none" xmlns="http://www.w3.org/2000/svg">
<mask id="path-1-inside-1_2_6" fill="white">
<path d="M50.5 20C50.5 8.9543 59.4543 0 70.5 0H778.5C789.546 0 798.5 8.95431 798.5 20V112H50.5V20Z"/>
</mask>
<path d="M50.5 20C50.5 8.9543 59.4543 0 70.5 0H778.5C789.546 0 798.5 8.95431 798.5 20V112H50.5V20Z" fill="url(#paint0_linear_2_6)"/>
<path d="M49.5 20C49.5 8.40202 58.902 -1 70.5 -1H778.5C790.098 -1 799.5 8.40202 799.5 20H797.5C797.5 9.50659 788.993 1 778.5 1H70.5C60.0066 1 51.5 9.50659 51.5 20H49.5ZM798.5 112H50.5H798.5ZM49.5 112V20C49.5 8.40202 58.902 -1 70.5 -1V1C60.0066 1 51.5 9.50659 51.5 20V112H49.5ZM778.5 -1C790.098 -1 799.5 8.40202 799.5 20V112H797.5V20C797.5 9.50659 788.993 1 778.5 1V-1Z" fill="black" fill-opacity="0.1" mask="url(#path-1-inside-1_2_6)"/>
<path d="M106.5 73.1115C115.521 73.1115 122.833 65.7988 122.833 56.7782C122.833 47.7575 115.521 40.4448 106.5 40.4448C97.4793 40.4448 90.1667 47.7575 90.1667 56.7782C90.1667 65.7988 97.4793 73.1115 106.5 73.1115Z" fill="url(#paint1_linear_2_6)"/>
<path d="M114.632 71.2565C114.095 71.5598 113.535 71.8398 112.975 72.0848C112.858 72.0265 112.753 71.9682 112.637 71.9098C111.027 71.1048 109.37 70.1482 107.737 69.0748C107.69 69.0515 107.632 69.0165 107.585 68.9815C107.923 68.7715 108.262 68.5498 108.6 68.3398C108.647 68.3748 108.682 68.3982 108.728 68.4215C108.74 68.4332 108.763 68.4448 108.787 68.4565C110.607 69.4832 112.427 70.3815 114.153 71.0815C114.2 71.1048 114.235 71.1165 114.282 71.1398C114.398 71.1865 114.515 71.2332 114.632 71.2565Z" fill="url(#paint2_linear_2_6)"/>
<path d="M91.2867 56.7665C91.2517 56.7198 91.205 56.6615 91.17 56.6032C91.205 56.5565 91.2283 56.5098 91.2633 56.4748C91.2633 56.5682 91.275 56.6732 91.2867 56.7665Z" fill="url(#paint3_radial_2_6)"/>
<path d="M127.582 42.7198C127.453 45.9048 125.552 50.0232 122.845 54.0715C122.787 54.1648 122.728 54.2465 122.658 54.3398C121.958 55.3782 121.212 56.3815 120.418 57.3848C119.87 58.1198 119.263 58.8315 118.668 59.5432C117.117 61.3398 115.472 63.0082 113.862 64.4432C112.357 65.7848 110.607 67.1382 108.728 68.4215C108.472 68.5848 108.215 68.7598 107.958 68.9348C107.888 68.9815 107.807 69.0282 107.737 69.0748C107.212 69.4248 106.687 69.7515 106.15 70.0665C105.893 70.2298 105.637 70.3815 105.38 70.5332C104.213 71.2098 103.035 71.8515 101.845 72.4348C101.752 72.4815 101.658 72.5282 101.565 72.5748C97.8433 74.3948 94.145 75.5965 91.1933 75.6898C90.785 75.7015 90.4233 75.7015 90.05 75.6665C88.265 75.5148 86.9 74.8848 86.0017 73.7648C82.7583 69.7748 86.8883 62.5532 90.2133 57.8982C90.295 59.2632 90.5633 60.5815 90.9717 61.8298C88.7083 65.4698 86.48 70.0082 88.125 72.0382C88.5333 72.5515 89.2567 72.8432 90.2717 72.9248C92.2667 73.0882 95.1133 72.3765 98.2167 71.0932C98.2983 71.0582 98.3683 71.0232 98.45 70.9882C99.8967 70.3815 101.39 69.6582 102.883 68.8298C103.117 68.7015 103.35 68.5615 103.583 68.4332C104.213 68.0715 104.843 67.6982 105.462 67.3015C105.695 67.1498 105.928 67.0098 106.15 66.8465C108.227 65.5048 110.222 63.9882 112.03 62.3898C113.675 60.9315 115.262 59.2982 116.732 57.6065C116.79 57.5248 116.872 57.4315 116.942 57.3498C117.175 57.0815 117.408 56.8132 117.618 56.5448C117.922 56.1948 118.202 55.8215 118.47 55.4715C119.683 53.9082 120.78 52.3215 121.69 50.7932C121.748 50.7115 121.795 50.6298 121.842 50.5482C123.65 47.5032 124.758 44.6798 124.84 42.6148C124.875 41.5882 124.653 40.8298 124.175 40.3282C122.787 38.8582 118.062 40.3748 114.223 42.3932C113.173 41.8215 112.065 41.3782 110.898 41.0515C120.5 35.2532 125.458 37.7032 126.17 38.4265C127.185 39.4882 127.652 40.9348 127.582 42.7198Z" fill="url(#paint4_linear_2_6)"/>
<path d="M126.415 73.7648C125.517 74.8848 124.152 75.5148 122.367 75.6665C121.993 75.7015 121.632 75.7015 121.223 75.6898C118.272 75.5965 114.573 74.3948 110.852 72.5748C110.828 72.5632 110.805 72.5515 110.782 72.5398C110.712 72.5048 110.642 72.4698 110.572 72.4348C109.382 71.8515 108.203 71.2098 107.037 70.5332C106.78 70.3815 106.523 70.2298 106.267 70.0665C105.73 69.7515 105.205 69.4248 104.68 69.0748C104.61 69.0282 104.528 68.9815 104.458 68.9348C104.202 68.7598 103.945 68.5848 103.688 68.4215C101.81 67.1382 100.06 65.7848 98.555 64.4432C96.945 63.0082 95.3 61.3398 93.7483 59.5432C93.1533 58.8315 92.5467 58.1198 91.9983 57.3848C91.3917 56.6148 90.8083 55.8448 90.26 55.0515C90.085 54.8182 89.9217 54.5848 89.7583 54.3398C89.6883 54.2465 89.63 54.1648 89.5717 54.0715C86.865 50.0232 84.9633 45.9048 84.835 42.7198C84.765 40.9348 85.2317 39.4882 86.2467 38.4265C86.935 37.7265 91.1 34.7748 102.067 41.0632C100.702 41.4365 99.4067 41.9965 98.2167 42.7082C94.7167 40.4098 89.6183 38.8698 88.2417 40.3282C87.7633 40.8298 87.5417 41.5882 87.5767 42.6148C87.6583 44.6798 88.7667 47.5032 90.575 50.5482C90.6217 50.6298 90.6683 50.7115 90.7267 50.7932C90.8433 50.9915 90.96 51.1782 91.0883 51.3765C91.9167 52.7182 92.885 54.1065 93.9467 55.4715C94.215 55.8215 94.495 56.1948 94.7983 56.5448C95.0083 56.8132 95.2417 57.0815 95.475 57.3498C95.545 57.4315 95.6267 57.5248 95.685 57.6065C97.155 59.2982 98.7417 60.9315 100.387 62.3898C102.195 63.9882 104.19 65.5048 106.267 66.8465C106.488 67.0098 106.722 67.1498 106.955 67.3015C107.573 67.6982 108.203 68.0715 108.833 68.4332C109.067 68.5615 109.3 68.7015 109.533 68.8298C111.027 69.6582 112.52 70.3815 113.967 70.9882C114.048 71.0232 114.118 71.0582 114.2 71.0932C114.235 71.1048 114.258 71.1165 114.293 71.1282C117.362 72.3882 120.173 73.0882 122.145 72.9248C123.16 72.8432 123.883 72.5515 124.292 72.0382C125.843 70.1248 123.942 65.9598 121.818 62.4365C122.273 61.2348 122.577 59.9632 122.728 58.6448C125.937 63.2998 129.495 69.9848 126.415 73.7648Z" fill="url(#paint5_linear_2_6)"/>
<path d="M161.876 65H151.94V48.656H155.444V62.936L154.556 61.616H161.876V65ZM167.207 65.312C166.359 65.312 165.607 65.152 164.951 64.832C164.311 64.496 163.815 64.032 163.463 63.44C163.111 62.848 162.935 62.16 162.935 61.376C162.935 60.544 163.127 59.84 163.511 59.264C163.895 58.672 164.407 58.216 165.047 57.896C165.703 57.576 166.431 57.416 167.231 57.416C168.399 57.416 169.343 57.68 170.063 58.208C170.783 58.736 171.263 59.496 171.503 60.488L169.991 60.224V57.488C169.991 57.056 169.839 56.68 169.535 56.36C169.231 56.04 168.743 55.88 168.071 55.88C167.639 55.88 167.143 55.936 166.583 56.048C166.023 56.144 165.447 56.336 164.855 56.624L163.823 54.128C164.527 53.776 165.279 53.496 166.079 53.288C166.895 53.08 167.727 52.976 168.575 52.976C169.663 52.976 170.575 53.168 171.311 53.552C172.047 53.936 172.591 54.48 172.943 55.184C173.311 55.888 173.495 56.704 173.495 57.632V65H170.639L169.943 62.72L171.503 62.24C171.247 63.2 170.759 63.952 170.039 64.496C169.319 65.04 168.375 65.312 167.207 65.312ZM168.287 62.816C168.815 62.816 169.231 62.68 169.535 62.408C169.855 62.136 170.015 61.792 170.015 61.376C170.015 60.928 169.855 60.576 169.535 60.32C169.231 60.064 168.815 59.936 168.287 59.936C167.759 59.936 167.343 60.064 167.039 60.32C166.735 60.576 166.583 60.928 166.583 61.376C166.583 61.792 166.735 62.136 167.039 62.408C167.343 62.68 167.759 62.816 168.287 62.816ZM179.045 64.112L174.341 53.264H177.893L182.357 63.584L179.045 64.112ZM176.525 69.56L183.605 53.264H187.157L180.101 69.56H176.525ZM193.267 65.288C192.051 65.288 190.979 65.032 190.051 64.52C189.123 63.992 188.403 63.264 187.891 62.336C187.379 61.408 187.123 60.344 187.123 59.144C187.123 57.928 187.379 56.856 187.891 55.928C188.403 55 189.123 54.28 190.051 53.768C190.979 53.24 192.051 52.976 193.267 52.976C194.499 52.976 195.579 53.24 196.507 53.768C197.435 54.28 198.155 55 198.667 55.928C199.195 56.856 199.459 57.928 199.459 59.144C199.459 60.344 199.195 61.408 198.667 62.336C198.155 63.264 197.435 63.992 196.507 64.52C195.579 65.032 194.499 65.288 193.267 65.288ZM193.267 61.88C194.051 61.88 194.683 61.632 195.163 61.136C195.659 60.624 195.907 59.96 195.907 59.144C195.907 58.312 195.659 57.64 195.163 57.128C194.683 56.616 194.051 56.36 193.267 56.36C192.515 56.36 191.891 56.616 191.395 57.128C190.915 57.624 190.675 58.288 190.675 59.12C190.675 59.952 190.915 60.624 191.395 61.136C191.891 61.632 192.515 61.88 193.267 61.88ZM205.067 65.288C204.203 65.288 203.499 65.16 202.955 64.904C202.427 64.648 202.011 64.296 201.707 63.848C201.419 63.384 201.219 62.864 201.107 62.288C201.011 61.696 200.963 61.072 200.963 60.416V53.264H204.467V60.224C204.467 60.88 204.603 61.32 204.875 61.544C205.147 61.752 205.483 61.856 205.883 61.856C206.235 61.856 206.579 61.8 206.915 61.688C207.251 61.56 207.579 61.384 207.899 61.16C208.219 60.92 208.507 60.632 208.763 60.296L209.363 62.072H208.379V53.264H211.907V65H209.291L208.571 62.672L209.771 62.768C209.387 63.216 208.939 63.64 208.427 64.04C207.931 64.424 207.403 64.728 206.843 64.952C206.283 65.176 205.691 65.288 205.067 65.288ZM219.652 65.192C218.356 65.192 217.332 64.872 216.58 64.232C215.844 63.592 215.476 62.544 215.476 61.088V53.408L215.428 53.264L216.148 50.432H218.98V60.32C218.98 60.864 219.108 61.256 219.364 61.496C219.62 61.72 219.956 61.832 220.372 61.832C220.612 61.832 220.836 61.816 221.044 61.784C221.268 61.736 221.452 61.688 221.596 61.64V64.928C221.324 65.008 221.028 65.072 220.708 65.12C220.404 65.168 220.052 65.192 219.652 65.192ZM213.652 56.48V53.264H221.596V56.48H213.652Z" fill="#222120"/>
<path d="M236.482 65.264C235.442 65.264 234.53 65.008 233.746 64.496C232.978 63.984 232.37 63.272 231.922 62.36C231.49 61.432 231.274 60.352 231.274 59.12C231.274 57.872 231.49 56.792 231.922 55.88C232.354 54.952 232.954 54.248 233.722 53.768C234.506 53.272 235.426 53.024 236.482 53.024C237.554 53.024 238.498 53.28 239.314 53.792C240.13 54.304 240.762 55.016 241.21 55.928C241.658 56.84 241.882 57.904 241.882 59.12C241.882 60.336 241.658 61.408 241.21 62.336C240.762 63.248 240.13 63.968 239.314 64.496C238.514 65.008 237.57 65.264 236.482 65.264ZM230.362 65V48.656H233.146V56.168H232.906V62.432H233.146L232.45 65H230.362ZM236.026 62.768C236.922 62.768 237.65 62.432 238.21 61.76C238.77 61.088 239.05 60.208 239.05 59.12C239.05 58.048 238.77 57.184 238.21 56.528C237.65 55.856 236.922 55.52 236.026 55.52C235.146 55.52 234.418 55.856 233.842 56.528C233.282 57.184 233.002 58.056 233.002 59.144C233.002 60.232 233.282 61.112 233.842 61.784C234.418 62.44 235.146 62.768 236.026 62.768ZM246.968 63.728L242.312 53.288H245.192L249.416 62.768L246.968 63.728ZM244.088 69.56L251.36 53.288H254.24L246.968 69.56H244.088ZM262.48 65V48.656H268.072C269.256 48.656 270.232 48.816 271 49.136C271.784 49.456 272.368 49.944 272.752 50.6C273.152 51.256 273.352 52.08 273.352 53.072C273.352 53.888 273.152 54.608 272.752 55.232C272.368 55.856 271.848 56.344 271.192 56.696C270.552 57.032 269.848 57.2 269.08 57.2L269.2 56.12C270.176 56.12 271.008 56.296 271.696 56.648C272.384 57 272.92 57.496 273.304 58.136C273.688 58.776 273.88 59.536 273.88 60.416C273.88 61.92 273.416 63.064 272.488 63.848C271.56 64.616 270.224 65 268.48 65H262.48ZM265.264 50.264V63.224L264.208 62.336H268.504C269.304 62.336 269.928 62.128 270.376 61.712C270.824 61.296 271.048 60.752 271.048 60.08C271.048 59.344 270.832 58.784 270.4 58.4C269.968 58.016 269.352 57.824 268.552 57.824H264.208V55.352H268.12C268.904 55.352 269.496 55.184 269.896 54.848C270.312 54.512 270.52 54.016 270.52 53.36C270.52 52.752 270.312 52.264 269.896 51.896C269.48 51.512 268.888 51.32 268.12 51.32H264.304L265.264 50.264ZM278.481 53.288L279.177 56.48V65H276.393V53.288H278.481ZM278.673 57.8L278.097 57.536V55.448L278.313 55.16C278.473 54.888 278.729 54.584 279.081 54.248C279.433 53.912 279.841 53.624 280.305 53.384C280.785 53.144 281.273 53.024 281.769 53.024C282.009 53.024 282.233 53.04 282.441 53.072C282.665 53.104 282.833 53.16 282.945 53.24V55.76H282.177C281.121 55.76 280.329 55.928 279.801 56.264C279.273 56.584 278.897 57.096 278.673 57.8ZM289.48 65.264C288.28 65.264 287.224 65.008 286.312 64.496C285.4 63.984 284.688 63.272 284.176 62.36C283.68 61.432 283.432 60.368 283.432 59.168C283.432 57.936 283.68 56.864 284.176 55.952C284.688 55.024 285.4 54.304 286.312 53.792C287.224 53.28 288.28 53.024 289.48 53.024C290.68 53.024 291.736 53.28 292.648 53.792C293.56 54.304 294.264 55.024 294.76 55.952C295.272 56.864 295.528 57.936 295.528 59.168C295.528 60.368 295.272 61.432 294.76 62.36C294.264 63.272 293.56 63.984 292.648 64.496C291.736 65.008 290.68 65.264 289.48 65.264ZM289.48 62.576C290.44 62.576 291.216 62.264 291.808 61.64C292.4 61 292.696 60.168 292.696 59.144C292.696 58.12 292.4 57.296 291.808 56.672C291.216 56.032 290.44 55.712 289.48 55.712C288.52 55.712 287.744 56.024 287.152 56.648C286.56 57.272 286.264 58.104 286.264 59.144C286.264 60.168 286.56 61 287.152 61.64C287.744 62.264 288.52 62.576 289.48 62.576ZM301.041 65.336C300.145 65.336 299.369 65.176 298.713 64.856C298.073 64.52 297.577 64.056 297.225 63.464C296.873 62.872 296.697 62.168 296.697 61.352C296.697 60.552 296.873 59.856 297.225 59.264C297.593 58.672 298.105 58.208 298.761 57.872C299.417 57.52 300.177 57.344 301.041 57.344C302.177 57.344 303.089 57.6 303.777 58.112C304.481 58.624 304.961 59.344 305.217 60.272L303.825 60.176V57.272C303.825 56.792 303.657 56.36 303.321 55.976C303.001 55.592 302.449 55.4 301.665 55.4C301.217 55.4 300.721 55.456 300.177 55.568C299.633 55.664 299.073 55.848 298.497 56.12L297.657 54.056C298.329 53.72 299.033 53.464 299.769 53.288C300.521 53.112 301.265 53.024 302.001 53.024C303.041 53.024 303.897 53.216 304.569 53.6C305.257 53.968 305.769 54.472 306.105 55.112C306.441 55.752 306.609 56.488 306.609 57.32V65H304.473L303.849 62.816L305.217 62.408C304.945 63.368 304.441 64.096 303.705 64.592C302.985 65.088 302.097 65.336 301.041 65.336ZM301.689 63.056C302.329 63.056 302.841 62.904 303.225 62.6C303.625 62.296 303.825 61.88 303.825 61.352C303.825 60.792 303.625 60.368 303.225 60.08C302.841 59.776 302.329 59.624 301.689 59.624C301.049 59.624 300.529 59.776 300.129 60.08C299.745 60.368 299.553 60.792 299.553 61.352C299.553 61.88 299.745 62.296 300.129 62.6C300.529 62.904 301.049 63.056 301.689 63.056ZM314.05 65.264C312.994 65.264 312.058 65.008 311.242 64.496C310.426 63.968 309.786 63.248 309.322 62.336C308.874 61.408 308.65 60.336 308.65 59.12C308.65 57.904 308.874 56.84 309.322 55.928C309.786 55.016 310.426 54.304 311.242 53.792C312.058 53.28 313.002 53.024 314.074 53.024C315.114 53.024 316.018 53.272 316.786 53.768C317.57 54.248 318.178 54.952 318.61 55.88C319.042 56.792 319.258 57.872 319.258 59.12C319.258 60.352 319.042 61.432 318.61 62.36C318.178 63.272 317.57 63.984 316.786 64.496C316.002 65.008 315.09 65.264 314.05 65.264ZM314.53 62.768C315.426 62.768 316.146 62.44 316.69 61.784C317.25 61.112 317.53 60.232 317.53 59.144C317.53 58.056 317.25 57.184 316.69 56.528C316.146 55.856 315.426 55.52 314.53 55.52C313.634 55.52 312.898 55.856 312.322 56.528C311.762 57.184 311.482 58.048 311.482 59.12C311.482 60.208 311.762 61.088 312.322 61.76C312.898 62.432 313.634 62.768 314.53 62.768ZM318.082 65L317.41 62.432H317.626V56.168H317.41V48.656H320.194V65H318.082ZM325.529 65L321.881 53.288H324.641L327.113 62.072H326.513L329.321 53.288H331.697L334.529 62.072H333.929L336.401 53.288H339.113L335.465 65H333.041L330.209 56.24H330.833L328.001 65H325.529ZM343.72 65.336C342.824 65.336 342.048 65.176 341.392 64.856C340.752 64.52 340.256 64.056 339.904 63.464C339.552 62.872 339.376 62.168 339.376 61.352C339.376 60.552 339.552 59.856 339.904 59.264C340.272 58.672 340.784 58.208 341.44 57.872C342.096 57.52 342.856 57.344 343.72 57.344C344.856 57.344 345.768 57.6 346.456 58.112C347.16 58.624 347.64 59.344 347.896 60.272L346.504 60.176V57.272C346.504 56.792 346.336 56.36 346 55.976C345.68 55.592 345.128 55.4 344.344 55.4C343.896 55.4 343.4 55.456 342.856 55.568C342.312 55.664 341.752 55.848 341.176 56.12L340.336 54.056C341.008 53.72 341.712 53.464 342.448 53.288C343.2 53.112 343.944 53.024 344.68 53.024C345.72 53.024 346.576 53.216 347.248 53.6C347.936 53.968 348.448 54.472 348.784 55.112C349.12 55.752 349.288 56.488 349.288 57.32V65H347.152L346.528 62.816L347.896 62.408C347.624 63.368 347.12 64.096 346.384 64.592C345.664 65.088 344.776 65.336 343.72 65.336ZM344.368 63.056C345.008 63.056 345.52 62.904 345.904 62.6C346.304 62.296 346.504 61.88 346.504 61.352C346.504 60.792 346.304 60.368 345.904 60.08C345.52 59.776 345.008 59.624 344.368 59.624C343.728 59.624 343.208 59.776 342.808 60.08C342.424 60.368 342.232 60.792 342.232 61.352C342.232 61.88 342.424 62.296 342.808 62.6C343.208 62.904 343.728 63.056 344.368 63.056ZM354.945 63.728L350.289 53.288H353.169L357.393 62.768L354.945 63.728ZM352.065 69.56L359.337 53.288H362.217L354.945 69.56H352.065ZM369.377 65L372.329 48.656H374.825L379.097 60.32L383.393 48.656H385.865L388.841 65H385.961L384.713 57.392C384.537 56.32 384.385 55.264 384.257 54.224C384.129 53.168 384.041 52.104 383.993 51.032H384.737C384.449 52.264 384.161 53.376 383.873 54.368C383.585 55.344 383.257 56.344 382.889 57.368L380.177 64.76H378.017L375.305 57.368C374.937 56.328 374.609 55.32 374.321 54.344C374.033 53.368 373.745 52.264 373.457 51.032H374.201C374.153 52.104 374.065 53.168 373.937 54.224C373.825 55.264 373.673 56.32 373.481 57.392L372.233 65H369.377ZM396.067 65.24C394.915 65.24 393.907 64.992 393.043 64.496C392.179 63.984 391.499 63.272 391.003 62.36C390.523 61.448 390.283 60.384 390.283 59.168C390.283 57.936 390.523 56.864 391.003 55.952C391.499 55.024 392.179 54.304 393.043 53.792C393.907 53.28 394.915 53.024 396.067 53.024C397.235 53.024 398.251 53.288 399.115 53.816C399.995 54.328 400.675 55.048 401.155 55.976C401.635 56.888 401.875 57.944 401.875 59.144C401.875 59.288 401.867 59.432 401.851 59.576C401.851 59.72 401.843 59.848 401.827 59.96H392.73V57.728H399.763L399.187 59C399.187 57.896 398.931 56.992 398.419 56.288C397.907 55.584 397.131 55.232 396.091 55.232C395.147 55.232 394.395 55.528 393.835 56.12C393.291 56.696 393.019 57.464 393.019 58.424V59.696C393.019 60.688 393.291 61.48 393.835 62.072C394.395 62.648 395.163 62.936 396.139 62.936C397.019 62.936 397.699 62.752 398.179 62.384C398.675 62.016 399.099 61.56 399.451 61.016L401.443 62.216C400.915 63.208 400.211 63.96 399.331 64.472C398.451 64.984 397.363 65.24 396.067 65.24ZM408.643 65.264C407.587 65.264 406.651 65.008 405.835 64.496C405.019 63.968 404.379 63.248 403.915 62.336C403.467 61.408 403.243 60.336 403.243 59.12C403.243 57.904 403.467 56.84 403.915 55.928C404.379 55.016 405.019 54.304 405.835 53.792C406.651 53.28 407.595 53.024 408.667 53.024C409.707 53.024 410.611 53.272 411.379 53.768C412.163 54.248 412.771 54.952 413.203 55.88C413.635 56.792 413.851 57.872 413.851 59.12C413.851 60.352 413.635 61.432 413.203 62.36C412.771 63.272 412.163 63.984 411.379 64.496C410.595 65.008 409.683 65.264 408.643 65.264ZM409.123 62.768C410.019 62.768 410.739 62.44 411.283 61.784C411.843 61.112 412.123 60.232 412.123 59.144C412.123 58.056 411.843 57.184 411.283 56.528C410.739 55.856 410.019 55.52 409.123 55.52C408.227 55.52 407.491 55.856 406.915 56.528C406.355 57.184 406.075 58.048 406.075 59.12C406.075 60.208 406.355 61.088 406.915 61.76C407.491 62.432 408.227 62.768 409.123 62.768ZM412.675 65L412.003 62.432H412.219V56.168H412.003V48.656H414.787V65H412.675ZM420.483 65H417.699V53.288H420.483V65ZM417.339 49.64C417.339 49.128 417.491 48.712 417.795 48.392C418.115 48.056 418.547 47.888 419.091 47.888C419.603 47.888 420.019 48.056 420.339 48.392C420.659 48.712 420.819 49.128 420.819 49.64C420.819 50.152 420.659 50.568 420.339 50.888C420.019 51.208 419.603 51.368 419.091 51.368C418.547 51.368 418.115 51.208 417.795 50.888C417.491 50.568 417.339 50.152 417.339 49.64ZM426.947 65.336C426.051 65.336 425.275 65.176 424.619 64.856C423.979 64.52 423.483 64.056 423.131 63.464C422.779 62.872 422.603 62.168 422.603 61.352C422.603 60.552 422.779 59.856 423.131 59.264C423.499 58.672 424.011 58.208 424.667 57.872C425.323 57.52 426.083 57.344 426.947 57.344C428.083 57.344 428.995 57.6 429.683 58.112C430.387 58.624 430.867 59.344 431.123 60.272L429.731 60.176V57.272C429.731 56.792 429.563 56.36 429.227 55.976C428.907 55.592 428.355 55.4 427.571 55.4C427.123 55.4 426.627 55.456 426.083 55.568C425.539 55.664 424.979 55.848 424.403 56.12L423.563 54.056C424.235 53.72 424.939 53.464 425.675 53.288C426.427 53.112 427.171 53.024 427.907 53.024C428.947 53.024 429.803 53.216 430.475 53.6C431.163 53.968 431.675 54.472 432.011 55.112C432.347 55.752 432.515 56.488 432.515 57.32V65H430.379L429.755 62.816L431.123 62.408C430.851 63.368 430.347 64.096 429.611 64.592C428.891 65.088 428.003 65.336 426.947 65.336ZM427.595 63.056C428.235 63.056 428.747 62.904 429.131 62.6C429.531 62.296 429.731 61.88 429.731 61.352C429.731 60.792 429.531 60.368 429.131 60.08C428.747 59.776 428.235 59.624 427.595 59.624C426.955 59.624 426.435 59.776 426.035 60.08C425.651 60.368 425.459 60.792 425.459 61.352C425.459 61.88 425.651 62.296 426.035 62.6C426.435 62.904 426.955 63.056 427.595 63.056Z" fill="#998C74"/>
<path d="M50.5 112H798.5V172C798.5 183.046 789.546 192 778.5 192H70.5C59.4543 192 50.5 183.046 50.5 172V112Z" fill="url(#paint6_linear_2_6)"/>
<path d="M51 112.5H798V172C798 182.77 789.27 191.5 778.5 191.5H70.5C59.7305 191.5 51 182.77 51 172V112.5Z" stroke="black" stroke-opacity="0.1"/>
<rect x="78.5" y="140" width="87" height="24" rx="5" fill="#482307" fill-opacity="0.25"/>
<path d="M91.306 157V150.5H92.671L92.762 151.696V157H91.306ZM95.713 157V153.672H97.169V157H95.713ZM95.713 153.672C95.713 153.152 95.6523 152.753 95.531 152.476C95.4183 152.19 95.2537 151.991 95.037 151.878C94.829 151.765 94.582 151.709 94.296 151.709C93.8107 151.7 93.4337 151.861 93.165 152.19C92.8963 152.519 92.762 152.992 92.762 153.607H92.216C92.216 152.922 92.3157 152.337 92.515 151.852C92.7143 151.358 93.0003 150.985 93.373 150.734C93.7457 150.474 94.1877 150.344 94.699 150.344C95.219 150.344 95.661 150.448 96.025 150.656C96.3977 150.864 96.6793 151.189 96.87 151.631C97.0693 152.064 97.169 152.632 97.169 153.334V153.672H95.713ZM98.7089 159.6V150.5H100.074L100.165 151.696V159.6H98.7089ZM102.219 157.156C101.673 157.156 101.201 157.017 100.802 156.74C100.412 156.454 100.113 156.055 99.9049 155.544C99.6969 155.033 99.5929 154.435 99.5929 153.75C99.5929 153.057 99.6969 152.459 99.9049 151.956C100.113 151.445 100.412 151.05 100.802 150.773C101.201 150.487 101.673 150.344 102.219 150.344C102.808 150.344 103.32 150.487 103.753 150.773C104.195 151.05 104.537 151.445 104.78 151.956C105.031 152.459 105.157 153.057 105.157 153.75C105.157 154.435 105.031 155.033 104.78 155.544C104.537 156.055 104.195 156.454 103.753 156.74C103.32 157.017 102.808 157.156 102.219 157.156ZM101.855 155.83C102.202 155.83 102.509 155.743 102.778 155.57C103.047 155.388 103.259 155.141 103.415 154.829C103.58 154.517 103.662 154.157 103.662 153.75C103.662 153.343 103.584 152.983 103.428 152.671C103.281 152.359 103.073 152.116 102.804 151.943C102.535 151.77 102.223 151.683 101.868 151.683C101.539 151.683 101.244 151.77 100.984 151.943C100.724 152.116 100.52 152.359 100.373 152.671C100.234 152.983 100.165 153.343 100.165 153.75C100.165 154.157 100.234 154.517 100.373 154.829C100.52 155.141 100.72 155.388 100.971 155.57C101.231 155.743 101.526 155.83 101.855 155.83ZM106.401 157V150.5H107.766L107.831 151.371C108.03 151.033 108.286 150.777 108.598 150.604C108.91 150.431 109.265 150.344 109.664 150.344C110.184 150.344 110.626 150.461 110.99 150.695C111.354 150.929 111.618 151.284 111.783 151.761C111.973 151.302 112.242 150.951 112.589 150.708C112.935 150.465 113.343 150.344 113.811 150.344C114.565 150.344 115.145 150.587 115.553 151.072C115.96 151.549 116.159 152.285 116.151 153.282V157H114.708V153.672C114.708 153.152 114.651 152.753 114.539 152.476C114.426 152.19 114.274 151.991 114.084 151.878C113.893 151.765 113.672 151.709 113.421 151.709C112.97 151.7 112.619 151.861 112.368 152.19C112.125 152.519 112.004 152.992 112.004 153.607V157H110.548V153.672C110.548 153.152 110.491 152.753 110.379 152.476C110.275 152.19 110.127 151.991 109.937 151.878C109.746 151.765 109.525 151.709 109.274 151.709C108.823 151.7 108.472 151.861 108.221 152.19C107.978 152.519 107.857 152.992 107.857 153.607V157H106.401Z" fill="white"/>
<path d="M126.673 157.156C125.971 157.156 125.347 156.957 124.801 156.558C124.255 156.151 123.826 155.596 123.514 154.894C123.211 154.183 123.059 153.369 123.059 152.45C123.059 151.531 123.211 150.721 123.514 150.019C123.826 149.308 124.251 148.754 124.788 148.355C125.334 147.948 125.962 147.744 126.673 147.744C127.384 147.744 128.008 147.948 128.545 148.355C129.091 148.754 129.52 149.308 129.832 150.019C130.144 150.721 130.3 151.531 130.3 152.45C130.3 153.369 130.144 154.183 129.832 154.894C129.529 155.596 129.104 156.151 128.558 156.558C128.012 156.957 127.384 157.156 126.673 157.156ZM126.673 155.986C127.132 155.986 127.54 155.834 127.895 155.531C128.259 155.228 128.541 154.812 128.74 154.283C128.939 153.754 129.039 153.143 129.039 152.45C129.039 151.757 128.939 151.146 128.74 150.617C128.541 150.08 128.259 149.659 127.895 149.356C127.54 149.053 127.132 148.901 126.673 148.901C126.214 148.901 125.806 149.053 125.451 149.356C125.096 149.659 124.818 150.08 124.619 150.617C124.42 151.146 124.32 151.757 124.32 152.45C124.32 153.143 124.42 153.759 124.619 154.296C124.818 154.825 125.096 155.241 125.451 155.544C125.806 155.839 126.214 155.986 126.673 155.986ZM132.271 157.182C132.054 157.182 131.863 157.104 131.699 156.948C131.543 156.792 131.465 156.601 131.465 156.376C131.465 156.151 131.543 155.96 131.699 155.804C131.863 155.648 132.054 155.57 132.271 155.57C132.496 155.57 132.687 155.648 132.843 155.804C133.007 155.96 133.09 156.151 133.09 156.376C133.09 156.601 133.007 156.792 132.843 156.948C132.687 157.104 132.496 157.182 132.271 157.182ZM137.87 157.156C137.168 157.156 136.544 156.957 135.998 156.558C135.452 156.151 135.023 155.596 134.711 154.894C134.408 154.183 134.256 153.369 134.256 152.45C134.256 151.531 134.408 150.721 134.711 150.019C135.023 149.308 135.448 148.754 135.985 148.355C136.531 147.948 137.16 147.744 137.87 147.744C138.581 147.744 139.205 147.948 139.742 148.355C140.288 148.754 140.717 149.308 141.029 150.019C141.341 150.721 141.497 151.531 141.497 152.45C141.497 153.369 141.341 154.183 141.029 154.894C140.726 155.596 140.301 156.151 139.755 156.558C139.209 156.957 138.581 157.156 137.87 157.156ZM137.87 155.986C138.33 155.986 138.737 155.834 139.092 155.531C139.456 155.228 139.738 154.812 139.937 154.283C140.137 153.754 140.236 153.143 140.236 152.45C140.236 151.757 140.137 151.146 139.937 150.617C139.738 150.08 139.456 149.659 139.092 149.356C138.737 149.053 138.33 148.901 137.87 148.901C137.411 148.901 137.004 149.053 136.648 149.356C136.293 149.659 136.016 150.08 135.816 150.617C135.617 151.146 135.517 151.757 135.517 152.45C135.517 153.143 135.617 153.759 135.816 154.296C136.016 154.825 136.293 155.241 136.648 155.544C137.004 155.839 137.411 155.986 137.87 155.986ZM143.468 157.182C143.251 157.182 143.06 157.104 142.896 156.948C142.74 156.792 142.662 156.601 142.662 156.376C142.662 156.151 142.74 155.96 142.896 155.804C143.06 155.648 143.251 155.57 143.468 155.57C143.693 155.57 143.884 155.648 144.04 155.804C144.204 155.96 144.287 156.151 144.287 156.376C144.287 156.601 144.204 156.792 144.04 156.948C143.884 157.104 143.693 157.182 143.468 157.182ZM149.068 157.156C148.366 157.156 147.742 156.957 147.196 156.558C146.65 156.151 146.221 155.596 145.909 154.894C145.605 154.183 145.454 153.369 145.454 152.45C145.454 151.531 145.605 150.721 145.909 150.019C146.221 149.308 146.645 148.754 147.183 148.355C147.729 147.948 148.357 147.744 149.068 147.744C149.778 147.744 150.402 147.948 150.94 148.355C151.486 148.754 151.915 149.308 152.227 150.019C152.539 150.721 152.695 151.531 152.695 152.45C152.695 153.369 152.539 154.183 152.227 154.894C151.923 155.596 151.499 156.151 150.953 156.558C150.407 156.957 149.778 157.156 149.068 157.156ZM149.068 155.986C149.527 155.986 149.934 155.834 150.29 155.531C150.654 155.228 150.935 154.812 151.135 154.283C151.334 153.754 151.434 153.143 151.434 152.45C151.434 151.757 151.334 151.146 151.135 150.617C150.935 150.08 150.654 149.659 150.29 149.356C149.934 149.053 149.527 148.901 149.068 148.901C148.608 148.901 148.201 149.053 147.846 149.356C147.49 149.659 147.213 150.08 147.014 150.617C146.814 151.146 146.715 151.757 146.715 152.45C146.715 153.143 146.814 153.759 147.014 154.296C147.213 154.825 147.49 155.241 147.846 155.544C148.201 155.839 148.608 155.986 149.068 155.986Z" fill="white" fill-opacity="0.75"/>
<rect x="175.5" y="140" width="139" height="24" rx="5" fill="#482307" fill-opacity="0.25"/>
<path d="M188.306 157V150.5H189.671L189.736 151.371C189.935 151.033 190.191 150.777 190.503 150.604C190.815 150.431 191.17 150.344 191.569 150.344C192.089 150.344 192.531 150.461 192.895 150.695C193.259 150.929 193.523 151.284 193.688 151.761C193.879 151.302 194.147 150.951 194.494 150.708C194.841 150.465 195.248 150.344 195.716 150.344C196.47 150.344 197.051 150.587 197.458 151.072C197.865 151.549 198.065 152.285 198.056 153.282V157H196.613V153.672C196.613 153.152 196.557 152.753 196.444 152.476C196.331 152.19 196.18 151.991 195.989 151.878C195.798 151.765 195.577 151.709 195.326 151.709C194.875 151.7 194.524 151.861 194.273 152.19C194.03 152.519 193.909 152.992 193.909 153.607V157H192.453V153.672C192.453 153.152 192.397 152.753 192.284 152.476C192.18 152.19 192.033 151.991 191.842 151.878C191.651 151.765 191.43 151.709 191.179 151.709C190.728 151.7 190.377 151.861 190.126 152.19C189.883 152.519 189.762 152.992 189.762 153.607V157H188.306ZM199.632 157V150.5H201.075V157H199.632ZM200.36 149.265C200.126 149.265 199.923 149.183 199.749 149.018C199.585 148.845 199.502 148.641 199.502 148.407C199.502 148.173 199.585 147.974 199.749 147.809C199.923 147.644 200.126 147.562 200.36 147.562C200.594 147.562 200.794 147.644 200.958 147.809C201.132 147.974 201.218 148.173 201.218 148.407C201.218 148.641 201.132 148.845 200.958 149.018C200.794 149.183 200.594 149.265 200.36 149.265ZM202.791 157V150.5H204.156L204.247 151.696V157H202.791ZM207.198 157V153.672H208.654V157H207.198ZM207.198 153.672C207.198 153.152 207.138 152.753 207.016 152.476C206.904 152.19 206.739 151.991 206.522 151.878C206.314 151.765 206.067 151.709 205.781 151.709C205.296 151.7 204.919 151.861 204.65 152.19C204.382 152.519 204.247 152.992 204.247 153.607H203.701C203.701 152.922 203.801 152.337 204 151.852C204.2 151.358 204.486 150.985 204.858 150.734C205.231 150.474 205.673 150.344 206.184 150.344C206.704 150.344 207.146 150.448 207.51 150.656C207.883 150.864 208.165 151.189 208.355 151.631C208.555 152.064 208.654 152.632 208.654 153.334V153.672H207.198ZM209.804 157V155.921L213.262 151.722H209.804V150.5H215.095V151.566L211.637 155.791H215.121V157H209.804ZM216.504 157V150.5H217.947V157H216.504ZM217.232 149.265C216.998 149.265 216.795 149.183 216.621 149.018C216.457 148.845 216.374 148.641 216.374 148.407C216.374 148.173 216.457 147.974 216.621 147.809C216.795 147.644 216.998 147.562 217.232 147.562C217.466 147.562 217.666 147.644 217.83 147.809C218.004 147.974 218.09 148.173 218.09 148.407C218.09 148.641 218.004 148.845 217.83 149.018C217.666 149.183 217.466 149.265 217.232 149.265ZM219.728 159.6V150.5H221.093L221.184 151.696V159.6H219.728ZM223.238 157.156C222.692 157.156 222.22 157.017 221.821 156.74C221.431 156.454 221.132 156.055 220.924 155.544C220.716 155.033 220.612 154.435 220.612 153.75C220.612 153.057 220.716 152.459 220.924 151.956C221.132 151.445 221.431 151.05 221.821 150.773C222.22 150.487 222.692 150.344 223.238 150.344C223.828 150.344 224.339 150.487 224.772 150.773C225.214 151.05 225.557 151.445 225.799 151.956C226.051 152.459 226.176 153.057 226.176 153.75C226.176 154.435 226.051 155.033 225.799 155.544C225.557 156.055 225.214 156.454 224.772 156.74C224.339 157.017 223.828 157.156 223.238 157.156ZM222.874 155.83C223.221 155.83 223.529 155.743 223.797 155.57C224.066 155.388 224.278 155.141 224.434 154.829C224.599 154.517 224.681 154.157 224.681 153.75C224.681 153.343 224.603 152.983 224.447 152.671C224.3 152.359 224.092 152.116 223.823 151.943C223.555 151.77 223.243 151.683 222.887 151.683C222.558 151.683 222.263 151.77 222.003 151.943C221.743 152.116 221.54 152.359 221.392 152.671C221.254 152.983 221.184 153.343 221.184 153.75C221.184 154.157 221.254 154.517 221.392 154.829C221.54 155.141 221.739 155.388 221.99 155.57C222.25 155.743 222.545 155.83 222.874 155.83ZM227.485 159.6V150.5H228.85L228.941 151.696V159.6H227.485ZM230.995 157.156C230.449 157.156 229.977 157.017 229.578 156.74C229.188 156.454 228.889 156.055 228.681 155.544C228.473 155.033 228.369 154.435 228.369 153.75C228.369 153.057 228.473 152.459 228.681 151.956C228.889 151.445 229.188 151.05 229.578 150.773C229.977 150.487 230.449 150.344 230.995 150.344C231.585 150.344 232.096 150.487 232.529 150.773C232.971 151.05 233.314 151.445 233.556 151.956C233.808 152.459 233.933 153.057 233.933 153.75C233.933 154.435 233.808 155.033 233.556 155.544C233.314 156.055 232.971 156.454 232.529 156.74C232.096 157.017 231.585 157.156 230.995 157.156ZM230.631 155.83C230.978 155.83 231.286 155.743 231.554 155.57C231.823 155.388 232.035 155.141 232.191 154.829C232.356 154.517 232.438 154.157 232.438 153.75C232.438 153.343 232.36 152.983 232.204 152.671C232.057 152.359 231.849 152.116 231.58 151.943C231.312 151.77 231 151.683 230.644 151.683C230.315 151.683 230.02 151.77 229.76 151.943C229.5 152.116 229.297 152.359 229.149 152.671C229.011 152.983 228.941 153.343 228.941 153.75C228.941 154.157 229.011 154.517 229.149 154.829C229.297 155.141 229.496 155.388 229.747 155.57C230.007 155.743 230.302 155.83 230.631 155.83ZM238.076 157.156C237.443 157.156 236.88 157.013 236.386 156.727C235.901 156.432 235.515 156.029 235.229 155.518C234.952 155.007 234.813 154.417 234.813 153.75C234.813 153.083 234.956 152.493 235.242 151.982C235.528 151.471 235.918 151.072 236.412 150.786C236.915 150.491 237.487 150.344 238.128 150.344C238.709 150.344 239.233 150.496 239.701 150.799C240.169 151.094 240.537 151.523 240.806 152.086C241.083 152.649 241.222 153.321 241.222 154.101H236.113L236.308 153.919C236.308 154.318 236.395 154.664 236.568 154.959C236.741 155.245 236.971 155.466 237.257 155.622C237.543 155.778 237.859 155.856 238.206 155.856C238.605 155.856 238.934 155.769 239.194 155.596C239.454 155.414 239.658 155.18 239.805 154.894L241.092 155.44C240.91 155.787 240.676 156.09 240.39 156.35C240.113 156.61 239.779 156.809 239.389 156.948C239.008 157.087 238.57 157.156 238.076 157.156ZM236.399 153.165L236.191 152.983H239.857L239.662 153.165C239.662 152.81 239.584 152.519 239.428 152.294C239.272 152.06 239.073 151.887 238.83 151.774C238.596 151.653 238.349 151.592 238.089 151.592C237.829 151.592 237.569 151.653 237.309 151.774C237.049 151.887 236.832 152.06 236.659 152.294C236.486 152.519 236.399 152.81 236.399 153.165ZM247.03 157L246.965 155.791V147.9H248.408V157H247.03ZM244.911 157.156C244.322 157.156 243.806 157.017 243.364 156.74C242.931 156.454 242.589 156.055 242.337 155.544C242.095 155.033 241.973 154.435 241.973 153.75C241.973 153.057 242.095 152.459 242.337 151.956C242.589 151.445 242.931 151.05 243.364 150.773C243.806 150.487 244.322 150.344 244.911 150.344C245.457 150.344 245.925 150.487 246.315 150.773C246.714 151.05 247.017 151.445 247.225 151.956C247.433 152.459 247.537 153.057 247.537 153.75C247.537 154.435 247.433 155.033 247.225 155.544C247.017 156.055 246.714 156.454 246.315 156.74C245.925 157.017 245.457 157.156 244.911 157.156ZM245.275 155.83C245.605 155.83 245.895 155.743 246.146 155.57C246.406 155.388 246.606 155.141 246.744 154.829C246.892 154.517 246.965 154.157 246.965 153.75C246.965 153.343 246.892 152.983 246.744 152.671C246.606 152.359 246.406 152.116 246.146 151.943C245.895 151.77 245.6 151.683 245.262 151.683C244.916 151.683 244.608 151.77 244.339 151.943C244.071 152.116 243.858 152.359 243.702 152.671C243.555 152.983 243.477 153.343 243.468 153.75C243.477 154.157 243.555 154.517 243.702 154.829C243.858 155.141 244.071 155.388 244.339 155.57C244.617 155.743 244.929 155.83 245.275 155.83ZM255.52 157.156C255.086 157.156 254.688 157.091 254.324 156.961C253.96 156.831 253.648 156.649 253.388 156.415C253.128 156.172 252.928 155.891 252.79 155.57L254.051 155.011C254.181 155.254 254.371 155.457 254.623 155.622C254.883 155.787 255.169 155.869 255.481 155.869C255.819 155.869 256.087 155.813 256.287 155.7C256.495 155.579 256.599 155.414 256.599 155.206C256.599 155.007 256.521 154.855 256.365 154.751C256.209 154.638 255.988 154.547 255.702 154.478L255.091 154.309C254.475 154.153 253.994 153.906 253.648 153.568C253.301 153.221 253.128 152.827 253.128 152.385C253.128 151.735 253.336 151.232 253.752 150.877C254.176 150.522 254.783 150.344 255.572 150.344C255.97 150.344 256.334 150.405 256.664 150.526C257.002 150.639 257.292 150.803 257.535 151.02C257.777 151.228 257.946 151.475 258.042 151.761L256.833 152.307C256.746 152.09 256.581 151.926 256.339 151.813C256.096 151.692 255.827 151.631 255.533 151.631C255.238 151.631 255.008 151.696 254.844 151.826C254.679 151.947 254.597 152.121 254.597 152.346C254.597 152.476 254.67 152.597 254.818 152.71C254.965 152.814 255.177 152.901 255.455 152.97L256.222 153.152C256.646 153.256 256.993 153.421 257.262 153.646C257.53 153.863 257.73 154.11 257.86 154.387C257.99 154.656 258.055 154.929 258.055 155.206C258.055 155.596 257.942 155.938 257.717 156.233C257.5 156.528 257.201 156.757 256.82 156.922C256.438 157.078 256.005 157.156 255.52 157.156ZM259.3 157V150.5H260.743V157H259.3ZM260.028 149.265C259.794 149.265 259.591 149.183 259.417 149.018C259.253 148.845 259.17 148.641 259.17 148.407C259.17 148.173 259.253 147.974 259.417 147.809C259.591 147.644 259.794 147.562 260.028 147.562C260.262 147.562 260.462 147.644 260.626 147.809C260.8 147.974 260.886 148.173 260.886 148.407C260.886 148.641 260.8 148.845 260.626 149.018C260.462 149.183 260.262 149.265 260.028 149.265ZM262.134 157V155.921L265.592 151.722H262.134V150.5H267.425V151.566L263.967 155.791H267.451V157H262.134ZM271.643 157.156C271.01 157.156 270.447 157.013 269.953 156.727C269.467 156.432 269.082 156.029 268.795 155.518C268.518 155.007 268.38 154.417 268.38 153.75C268.38 153.083 268.523 152.493 268.809 151.982C269.095 151.471 269.485 151.072 269.979 150.786C270.481 150.491 271.053 150.344 271.695 150.344C272.275 150.344 272.8 150.496 273.268 150.799C273.736 151.094 274.104 151.523 274.373 152.086C274.65 152.649 274.789 153.321 274.789 154.101H269.68L269.875 153.919C269.875 154.318 269.961 154.664 270.135 154.959C270.308 155.245 270.538 155.466 270.824 155.622C271.11 155.778 271.426 155.856 271.773 155.856C272.171 155.856 272.501 155.769 272.761 155.596C273.021 155.414 273.224 155.18 273.372 154.894L274.659 155.44C274.477 155.787 274.243 156.09 273.957 156.35C273.679 156.61 273.346 156.809 272.956 156.948C272.574 157.087 272.137 157.156 271.643 157.156ZM269.966 153.165L269.758 152.983H273.424L273.229 153.165C273.229 152.81 273.151 152.519 272.995 152.294C272.839 152.06 272.639 151.887 272.397 151.774C272.163 151.653 271.916 151.592 271.656 151.592C271.396 151.592 271.136 151.653 270.876 151.774C270.616 151.887 270.399 152.06 270.226 152.294C270.052 152.519 269.966 152.81 269.966 153.165Z" fill="white"/>
<path d="M281.228 157V155.973C281.228 155.704 281.289 155.427 281.41 155.141C281.54 154.846 281.722 154.556 281.956 154.27C282.199 153.984 282.485 153.72 282.814 153.477L284.569 152.177C284.777 152.03 284.963 151.861 285.128 151.67C285.301 151.471 285.436 151.267 285.531 151.059C285.635 150.842 285.687 150.63 285.687 150.422C285.687 150.145 285.618 149.893 285.479 149.668C285.34 149.434 285.145 149.252 284.894 149.122C284.643 148.983 284.344 148.914 283.997 148.914C283.668 148.914 283.377 148.979 283.126 149.109C282.883 149.23 282.68 149.395 282.515 149.603C282.35 149.811 282.233 150.032 282.164 150.266L280.851 150.019C280.946 149.62 281.133 149.248 281.41 148.901C281.687 148.554 282.043 148.277 282.476 148.069C282.909 147.852 283.399 147.744 283.945 147.744C284.569 147.744 285.106 147.861 285.557 148.095C286.016 148.32 286.372 148.637 286.623 149.044C286.874 149.443 287 149.902 287 150.422C287 150.925 286.861 151.388 286.584 151.813C286.315 152.238 285.925 152.649 285.414 153.048L283.789 154.27C283.468 154.513 283.213 154.764 283.022 155.024C282.84 155.284 282.727 155.561 282.684 155.856H287.117V157H281.228ZM289.892 155.037L289.125 154.192L292.544 150.5H294.052L289.892 155.037ZM288.696 157V147.9H289.931V157H288.696ZM292.817 157L290.425 153.438L291.231 152.58L294.299 157H292.817ZM295.196 157V147.9H296.431V155.791L296.366 157H295.196ZM298.563 157.156C298.017 157.156 297.54 157.013 297.133 156.727C296.734 156.441 296.427 156.042 296.21 155.531C295.993 155.02 295.885 154.426 295.885 153.75C295.885 153.065 295.993 152.472 296.21 151.969C296.427 151.458 296.734 151.059 297.133 150.773C297.54 150.487 298.017 150.344 298.563 150.344C299.144 150.344 299.655 150.487 300.097 150.773C300.539 151.059 300.881 151.458 301.124 151.969C301.375 152.472 301.501 153.065 301.501 153.75C301.501 154.426 301.375 155.02 301.124 155.531C300.881 156.042 300.539 156.441 300.097 156.727C299.655 157.013 299.144 157.156 298.563 157.156ZM298.264 156.038C298.654 156.038 298.996 155.943 299.291 155.752C299.586 155.553 299.815 155.284 299.98 154.946C300.153 154.599 300.24 154.201 300.24 153.75C300.24 153.299 300.158 152.905 299.993 152.567C299.828 152.22 299.599 151.952 299.304 151.761C299.009 151.562 298.667 151.462 298.277 151.462C297.922 151.462 297.601 151.562 297.315 151.761C297.038 151.952 296.821 152.22 296.665 152.567C296.509 152.914 296.431 153.308 296.431 153.75C296.431 154.201 296.509 154.599 296.665 154.946C296.821 155.284 297.038 155.553 297.315 155.752C297.592 155.943 297.909 156.038 298.264 156.038Z" fill="white" fill-opacity="0.75"/>
<defs>
<linearGradient id="paint0_linear_2_6" x1="424.5" y1="0" x2="424.5" y2="300.407" gradientUnits="userSpaceOnUse">
<stop stop-color="#FFDA92" stop-opacity="0.33"/>
<stop offset="1" stop-color="white" stop-opacity="0"/>
</linearGradient>
<linearGradient id="paint1_linear_2_6" x1="106.5" y1="78.0873" x2="106.5" y2="40.1217" gradientUnits="userSpaceOnUse">
<stop stop-color="#3C301F"/>
<stop offset="1" stop-color="#80776B"/>
</linearGradient>
<linearGradient id="paint2_linear_2_6" x1="107.585" y1="70.2123" x2="114.632" y2="70.2123" gradientUnits="userSpaceOnUse">
<stop stop-color="#9CA5AD"/>
<stop offset="1" stop-color="#CDD2D6"/>
</linearGradient>
<radialGradient id="paint3_radial_2_6" cx="0" cy="0" r="1" gradientUnits="userSpaceOnUse" gradientTransform="translate(91.2272 56.3838) scale(0.413002 0.413)">
<stop offset="0.323" stop-color="#23D9D6"/>
<stop offset="0.427" stop-color="#23D4D7"/>
<stop offset="0.542" stop-color="#21C7DC"/>
<stop offset="0.664" stop-color="#1FB0E2"/>
<stop offset="0.789" stop-color="#1C91EC"/>
<stop offset="0.917" stop-color="#1969F8"/>
<stop offset="0.944" stop-color="#1860FB"/>
</radialGradient>
<linearGradient id="paint4_linear_2_6" x1="106.206" y1="92.057" x2="106.206" y2="49.4235" gradientUnits="userSpaceOnUse">
<stop offset="0.0885417" stop-color="#806135"/>
<stop offset="0.40625" stop-color="#E2B576"/>
<stop offset="0.645833" stop-color="#E2B576"/>
<stop offset="0.791667" stop-color="#F2CA91"/>
<stop offset="0.895833" stop-color="#FED9A5"/>
<stop offset="1" stop-color="#FADBB0"/>
</linearGradient>
<linearGradient id="paint5_linear_2_6" x1="106.212" y1="92.1294" x2="106.212" y2="49.3072" gradientUnits="userSpaceOnUse">
<stop offset="0.0885417" stop-color="#806135"/>
<stop offset="0.40625" stop-color="#E2B576"/>
<stop offset="0.645833" stop-color="#E2B576"/>
<stop offset="0.791667" stop-color="#F2CA91"/>
<stop offset="0.895833" stop-color="#FED9A5"/>
<stop offset="1" stop-color="#FADBB0"/>
</linearGradient>
<linearGradient id="paint6_linear_2_6" x1="424.5" y1="112" x2="424.5" y2="326.576" gradientUnits="userSpaceOnUse">
<stop stop-color="#A97C24" stop-opacity="0.15"/>
<stop offset="1" stop-color="white" stop-opacity="0"/>
</linearGradient>
</defs>
</svg>
